<?xml version="1.0" encoding="UTF-8"?>
<svg width="234px" height="60px" viewBox="0 0 234 60" version="1.1" xmlns="http://www.w3.org/2000/svg" xmlns:xlink="http://www.w3.org/1999/xlink">
    <!-- Generator: Sketch 49.3 (51167) - http://www.bohemiancoding.com/sketch -->
    <title>logo copy</title>
    <desc>Created with Sketch.</desc>
    <defs>
        <linearGradient x1="0%" y1="0%" x2="100%" y2="100%" id="linearGradient-1">
            <stop stop-color="#003E73" offset="0%"></stop>
            <stop stop-color="#002C51" offset="100%"></stop>
        </linearGradient>
    </defs>
    <g id="Home" stroke="none" stroke-width="1" fill="none" fill-rule="evenodd">
        <g id="home-v3" transform="translate(-40.000000, -18.000000)">
            <g id="logo-copy" transform="translate(40.000000, 18.000000)">
                <path d="M75.707027,43.7837838 L75.1281081,43.6816216 C74.9162152,43.7572977 74.6551367,43.8216214 74.3448649,43.8745946 C74.034593,43.9275678 73.7205421,43.9540541 73.4027027,43.9540541 C72.8502675,43.9540541 72.3337862,43.8745954 71.8532432,43.7156757 C71.3727003,43.556756 70.9527045,43.3221637 70.5932432,43.0118919 C70.233782,42.7016201 69.9518929,42.3194617 69.7475676,41.8654054 C69.5432422,41.4113491 69.4410811,40.8929759 69.4410811,40.3102703 C69.4410811,39.7124294 69.5451341,39.1789213 69.7532432,38.7097297 C69.9613524,38.2405382 70.2451333,37.8451367 70.6045946,37.5235135 C70.9640559,37.2018903 71.3878354,36.9559468 71.8759459,36.7856757 C72.3640565,36.6154046 72.8843216,36.5302703 73.4367568,36.5302703 C73.777299,36.5302703 74.089458,36.5567565 74.3732432,36.6097297 C74.6570284,36.662703 74.8670263,36.7118917 75.0032432,36.7572973 L75.9113514,36.587027 L75.9113514,38.9140541 L75.3891892,38.9140541 L75.0827027,37.4610811 C74.8556745,37.3248642 74.6116229,37.2151356 74.3505405,37.1318919 C74.0894582,37.0486482 73.7659479,37.007027 73.38,37.007027 C72.9713493,37.007027 72.5986503,37.0864857 72.2618919,37.2454054 C71.9251335,37.4043251 71.6375688,37.6237824 71.3991892,37.9037838 C71.1608096,38.1837852 70.9754061,38.5167548 70.842973,38.9027027 C70.7105399,39.2886506 70.6443243,39.7086464 70.6443243,40.1627027 C70.6443243,40.6545971 70.708648,41.1048628 70.8372973,41.5135135 C70.9659466,41.9221642 71.1513501,42.2740526 71.3935135,42.5691892 C71.6356769,42.8643258 71.9364847,43.0932424 72.2959459,43.2559459 C72.6554072,43.4186495 73.0659436,43.5 73.5275676,43.5 C73.7621633,43.5 74.0024312,43.4716219 74.2483784,43.4148649 C74.4943256,43.3581078 74.7194584,43.2729735 74.9237838,43.1594595 L75.4118919,41.592973 L75.9567568,41.592973 L75.707027,43.7837838 Z M85.8518919,40.2081081 C85.8518919,40.7227053 85.7554063,41.2070248 85.5624324,41.6610811 C85.3694585,42.1151374 85.1045962,42.5124307 84.7678378,42.852973 C84.4310794,43.1935152 84.0375698,43.4640531 83.5872973,43.6645946 C83.1370247,43.8651361 82.6508134,43.9654054 82.1286486,43.9654054 C81.6064838,43.9654054 81.1202725,43.8764874 80.67,43.6986486 C80.2197274,43.5208099 79.8300016,43.2710827 79.5008108,42.9494595 C79.1716199,42.6278362 78.9124333,42.2418941 78.7232432,41.7916216 C78.5340531,41.3413491 78.4394594,40.8475703 78.4394594,40.3102703 C78.4394594,39.7956731 78.5359449,39.3094617 78.7289189,38.8516216 C78.9218928,38.3937815 79.186755,37.9945963 79.5235135,37.6540541 C79.8602719,37.3135118 80.2537815,37.042974 80.704054,36.8424324 C81.1543265,36.6418909 81.6405379,36.5416216 82.1627027,36.5416216 C82.6848674,36.5416216 83.1710788,36.6305397 83.6213513,36.8083784 C84.0716238,36.9862171 84.4613497,37.2378362 84.7905405,37.5632432 C85.1197313,37.8886503 85.3789179,38.2745924 85.5681081,38.7210811 C85.7572982,39.1675698 85.8518919,39.6632405 85.8518919,40.2081081 Z M84.6486486,40.332973 C84.6486486,39.8108082 84.5805412,39.3435156 84.4443243,38.9310811 C84.3081074,38.5186466 84.1245957,38.1667582 83.8937837,37.8754054 C83.6629718,37.5840526 83.3943258,37.3608116 83.0878378,37.2056757 C82.7813498,37.0505398 82.4578395,36.972973 82.1172973,36.972973 C81.776755,36.972973 81.4570285,37.0429723 81.1581081,37.182973 C80.8591877,37.3229737 80.5981092,37.5291878 80.3748648,37.8016216 C80.1516205,38.0740554 79.9737844,38.4089169 79.8413513,38.8062162 C79.7089182,39.2035155 79.6427027,39.6594569 79.6427027,40.1740541 C79.6427027,40.6962188 79.7108101,41.1654033 79.847027,41.5816216 C79.9832439,41.9978399 80.1667556,42.3516202 80.3975675,42.642973 C80.6283795,42.9343258 80.8951336,43.1575668 81.1978378,43.3127027 C81.500542,43.4678386 81.8221604,43.5454054 82.1627027,43.5454054 C82.5032449,43.5454054 82.8229714,43.4735142 83.1218919,43.3297297 C83.4208123,43.1859452 83.6837826,42.9778392 83.9108108,42.7054054 C84.1378389,42.4329716 84.3175669,42.0981101 84.45,41.7008108 C84.5824331,41.3035115 84.6486486,40.8475701 84.6486486,40.332973 Z M93.9762161,43.7837838 L94.0102702,43.3864865 L94.6459459,43.307027 C94.7064867,43.2994594 94.7537835,43.261622 94.7878378,43.1935135 C94.821892,43.1254051 94.8483782,43.0062171 94.8672972,42.8359459 C94.8862162,42.6656748 94.8956756,42.4386501 94.8956756,42.1548649 C94.8956756,41.8710797 94.8881081,41.5097319 94.8729729,41.0708108 L94.7367567,37.4043243 L94.6572972,37.4043243 L92.4551351,43.5567568 L91.9102702,43.5567568 L89.7648648,37.6540541 L89.6286486,37.6540541 L89.481081,41.0254054 C89.4583782,41.5400026 89.4413513,41.9486471 89.4299999,42.2513514 C89.4186485,42.5540556 89.4186485,42.7810803 89.4299999,42.9324324 C89.4413513,43.0837845 89.4621619,43.1821619 89.4924324,43.2275676 C89.5227028,43.2729732 89.564324,43.2994594 89.6172972,43.307027 L90.2643242,43.3864865 L90.2983783,43.7837838 L87.8351351,43.7837838 L87.8691891,43.3864865 L88.5048648,43.307027 C88.5654056,43.2994594 88.6164862,43.2729732 88.658108,43.2275676 C88.6997299,43.1821619 88.7394592,43.0837845 88.7772972,42.9324324 C88.8151352,42.7810803 88.849189,42.5559474 88.8794594,42.257027 C88.9097298,41.9581066 88.9399998,41.5475702 88.9702702,41.0254054 L89.1178378,38.232973 C89.132973,37.9075659 89.1045949,37.6672981 89.0327026,37.5121622 C88.9608104,37.3570263 88.8378386,37.256757 88.6637837,37.2113514 L87.9827026,37.0864865 L87.9486486,36.6891892 L90.5367567,36.6891892 L92.4551351,42.0016216 L92.5118918,42.0016216 L94.3735134,36.6891892 L96.8821621,36.6891892 L96.848108,37.0864865 L96.0762161,37.1545946 C95.9778373,37.1697298 95.907838,37.2094591 95.8662161,37.2737838 C95.8245943,37.3381084 95.8037837,37.4081077 95.8037837,37.4837838 L95.9399999,41.0708108 C95.9551351,41.5324347 95.972162,41.9089175 95.991081,42.2002703 C96.01,42.4916231 96.0345944,42.716756 96.0648648,42.8756757 C96.0951352,43.0345954 96.1310808,43.144324 96.1727026,43.2048649 C96.2143245,43.2654057 96.2616213,43.2994594 96.3145945,43.307027 L96.9502702,43.3864865 L96.9843242,43.7837838 L93.9762161,43.7837838 Z M104.938378,43.7837838 L104.972432,43.3864865 L105.608108,43.307027 C105.668649,43.2994594 105.715946,43.261622 105.75,43.1935135 C105.784054,43.1254051 105.81054,43.0062171 105.829459,42.8359459 C105.848378,42.6656748 105.857838,42.4386501 105.857838,42.1548649 C105.857838,41.8710797 105.85027,41.5097319 105.835135,41.0708108 L105.698919,37.4043243 L105.619459,37.4043243 L103.417297,43.5567568 L102.872432,43.5567568 L100.727027,37.6540541 L100.590811,37.6540541 L100.443243,41.0254054 C100.42054,41.5400026 100.403513,41.9486471 100.392162,42.2513514 C100.380811,42.5540556 100.380811,42.7810803 100.392162,42.9324324 C100.403513,43.0837845 100.424324,43.1821619 100.454594,43.2275676 C100.484865,43.2729732 100.526486,43.2994594 100.579459,43.307027 L101.226486,43.3864865 L101.26054,43.7837838 L98.7972972,43.7837838 L98.8313512,43.3864865 L99.4670269,43.307027 C99.5275678,43.2994594 99.5786483,43.2729732 99.6202702,43.2275676 C99.661892,43.1821619 99.7016213,43.0837845 99.7394593,42.9324324 C99.7772974,42.7810803 99.8113511,42.5559474 99.8416215,42.257027 C99.8718919,41.9581066 99.9021619,41.5475702 99.9324323,41.0254054 L100.08,38.232973 C100.095135,37.9075659 100.066757,37.6672981 99.9948647,37.5121622 C99.9229725,37.3570263 99.8000008,37.256757 99.6259458,37.2113514 L98.9448647,37.0864865 L98.9108107,36.6891892 L101.498919,36.6891892 L103.417297,42.0016216 L103.474054,42.0016216 L105.335676,36.6891892 L107.844324,36.6891892 L107.81027,37.0864865 L107.038378,37.1545946 C106.939999,37.1697298 106.87,37.2094591 106.828378,37.2737838 C106.786756,37.3381084 106.765946,37.4081077 106.765946,37.4837838 L106.902162,41.0708108 C106.917297,41.5324347 106.934324,41.9089175 106.953243,42.2002703 C106.972162,42.4916231 106.996756,42.716756 107.027027,42.8756757 C107.057297,43.0345954 107.093243,43.144324 107.134865,43.2048649 C107.176487,43.2654057 107.223783,43.2994594 107.276757,43.307027 L107.912432,43.3864865 L107.946486,43.7837838 L104.938378,43.7837838 Z M115.582703,43.7837838 L110.02054,43.7837838 L110.054594,43.3864865 L110.52,43.3297297 C110.671352,43.3145945 110.775405,43.2900002 110.832162,43.2559459 C110.888919,43.2218917 110.917297,43.1783786 110.917297,43.1254054 L110.917297,37.3248649 C110.917297,37.2718916 110.892703,37.2340542 110.843513,37.2113514 C110.794324,37.1886485 110.686487,37.1659461 110.52,37.1432432 L110.054594,37.0864865 L110.02054,36.6891892 L115.594054,36.6891892 L115.594054,38.8005405 L115.049189,38.8005405 L114.776757,37.6994595 C114.738919,37.5708102 114.693514,37.468649 114.64054,37.392973 C114.587567,37.3172969 114.483514,37.2605407 114.328378,37.2227027 C114.173242,37.1848647 113.946218,37.1602703 113.647297,37.1489189 C113.348377,37.1375675 112.934057,37.1318919 112.404324,37.1318919 L111.995676,37.1318919 L111.995676,39.9583784 L112.302162,39.9583784 C112.521623,39.9583784 112.699459,39.9564865 112.835676,39.9527027 C112.971892,39.9489189 113.079729,39.9375677 113.159189,39.9186486 C113.238649,39.8997296 113.295405,39.8732434 113.329459,39.8391892 C113.363514,39.805135 113.391892,39.7616219 113.414594,39.7086486 L113.675676,38.9481081 L114.118378,38.9481081 L113.88,41.3886486 L113.448648,41.3886486 L113.357838,40.6621622 C113.35027,40.6091889 113.337027,40.5656758 113.318108,40.5316216 C113.299189,40.4975674 113.251892,40.4691893 113.176216,40.4464865 C113.10054,40.4237837 112.992703,40.4086487 112.852703,40.4010811 C112.712702,40.3935135 112.517839,40.3897297 112.268108,40.3897297 L111.995676,40.3897297 L111.995676,43.3410811 L112.313513,43.3410811 C112.881084,43.3410811 113.327566,43.3354055 113.652973,43.3240541 C113.97838,43.3127026 114.226215,43.2862164 114.396486,43.2445946 C114.566757,43.2029728 114.684054,43.1443247 114.748378,43.0686486 C114.812703,42.9929726 114.867567,42.8945952 114.912973,42.7735135 L115.185405,41.7291892 L115.798378,41.7291892 L115.582703,43.7837838 Z M122.378919,38.652973 C122.378919,38.1383758 122.240812,37.7505418 121.964594,37.4894595 C121.688377,37.2283771 121.274057,37.1167566 120.721621,37.1545946 L120.54,37.1545946 C120.456756,37.1545946 120.373514,37.1583783 120.29027,37.1659459 C120.199459,37.1735136 120.101081,37.1772973 119.995135,37.1772973 L119.995135,40.1513514 L120.801081,40.2194595 C121.27784,40.1816214 121.659998,40.0359472 121.947567,39.7824324 C122.235136,39.5289177 122.378919,39.1524349 122.378919,38.652973 Z M123.389189,42.6486486 C123.487568,42.7848655 123.57081,42.8927023 123.638919,42.9721622 C123.707027,43.051622 123.767567,43.1140538 123.82054,43.1594595 C123.873514,43.2048651 123.924594,43.2370269 123.973784,43.2559459 C124.022973,43.274865 124.074054,43.2918918 124.127027,43.307027 L124.478919,43.3864865 L124.524324,43.7837838 L122.696757,43.7837838 L122.265405,43.0005405 L120.903243,40.6167568 L119.995135,40.6508108 L119.995135,43.1481081 C119.995135,43.2010813 120.021621,43.2408107 120.074594,43.2672973 C120.127568,43.2937839 120.233513,43.3145945 120.392432,43.3297297 L120.948648,43.3864865 L120.982703,43.7837838 L118.02,43.7837838 L118.054054,43.3864865 L118.519459,43.3297297 C118.670811,43.3145945 118.774864,43.2900002 118.831621,43.2559459 C118.888378,43.2218917 118.916757,43.1783786 118.916757,43.1254054 L118.916757,37.3248649 C118.916757,37.2718916 118.892162,37.2340542 118.842973,37.2113514 C118.793783,37.1886485 118.685947,37.1659461 118.519459,37.1432432 L118.054054,37.0864865 L118.02,36.6891892 L120.96,36.6891892 C121.860545,36.6891892 122.518917,36.8499984 122.935135,37.1716216 C123.351353,37.4932449 123.559459,37.9151325 123.559459,38.4372973 C123.559459,38.9291916 123.408109,39.3378362 123.105405,39.6632432 C122.802701,39.9886503 122.412975,40.2345938 121.936216,40.4010811 L123.389189,42.6486486 Z M132.467027,43.7837838 L131.888108,43.6816216 C131.676215,43.7572977 131.415136,43.8216214 131.104865,43.8745946 C130.794593,43.9275678 130.480542,43.9540541 130.162702,43.9540541 C129.610267,43.9540541 129.093786,43.8745954 128.613243,43.7156757 C128.1327,43.556756 127.712704,43.3221637 127.353243,43.0118919 C126.993782,42.7016201 126.711893,42.3194617 126.507567,41.8654054 C126.303242,41.4113491 126.201081,40.8929759 126.201081,40.3102703 C126.201081,39.7124294 126.305134,39.1789213 126.513243,38.7097297 C126.721352,38.2405382 127.005133,37.8451367 127.364594,37.5235135 C127.724056,37.2018903 128.147835,36.9559468 128.635946,36.7856757 C129.124056,36.6154046 129.644321,36.5302703 130.196757,36.5302703 C130.537299,36.5302703 130.849458,36.5567565 131.133243,36.6097297 C131.417028,36.662703 131.627026,36.7118917 131.763243,36.7572973 L132.671351,36.587027 L132.671351,38.9140541 L132.149189,38.9140541 L131.842702,37.4610811 C131.615674,37.3248642 131.371623,37.2151356 131.11054,37.1318919 C130.849458,37.0486482 130.525948,37.007027 130.14,37.007027 C129.731349,37.007027 129.35865,37.0864857 129.021892,37.2454054 C128.685133,37.4043251 128.397569,37.6237824 128.159189,37.9037838 C127.920809,38.1837852 127.735406,38.5167548 127.602973,38.9027027 C127.47054,39.2886506 127.404324,39.7086464 127.404324,40.1627027 C127.404324,40.6545971 127.468648,41.1048628 127.597297,41.5135135 C127.725946,41.9221642 127.91135,42.2740526 128.153513,42.5691892 C128.395677,42.8643258 128.696484,43.0932424 129.055946,43.2559459 C129.415407,43.4186495 129.825943,43.5 130.287567,43.5 C130.522163,43.5 130.762431,43.4716219 131.008378,43.4148649 C131.254325,43.3581078 131.479458,43.2729735 131.683784,43.1594595 L132.171892,41.592973 L132.716757,41.592973 L132.467027,43.7837838 Z M135.176756,43.7837838 L135.210811,43.3864865 L135.789729,43.3297297 C135.941082,43.3145945 136.045135,43.2900002 136.101892,43.2559459 C136.158649,43.2218917 136.187027,43.1783786 136.187027,43.1254054 L136.187027,37.3248649 C136.187027,37.2718916 136.162432,37.2340542 136.113243,37.2113514 C136.064054,37.1886485 135.956217,37.1659461 135.789729,37.1432432 L135.210811,37.0864865 L135.176756,36.6891892 L138.275675,36.6891892 L138.241621,37.0864865 L137.662702,37.1432432 C137.51135,37.1583785 137.407297,37.1829728 137.35054,37.217027 C137.293783,37.2510813 137.265405,37.2945943 137.265405,37.3475676 L137.265405,43.1481081 C137.265405,43.2010813 137.291891,43.2408107 137.344865,43.2672973 C137.397838,43.2937839 137.503783,43.3145945 137.662702,43.3297297 L138.241621,43.3864865 L138.275675,43.7837838 L135.176756,43.7837838 Z M143.925405,43.7837838 L143.959459,43.3864865 L144.515675,43.2956757 C144.621622,43.2729729 144.699189,43.2445948 144.748378,43.2105405 C144.797568,43.1764863 144.824054,43.1159464 144.827838,43.0289189 C144.831621,42.9418915 144.812703,42.8264872 144.771081,42.6827027 C144.729459,42.5389182 144.670811,42.3497309 144.595135,42.1151351 L144.311351,41.2297297 L141.972973,41.2297297 L141.70054,42.1037838 C141.624864,42.3156767 141.564324,42.4954047 141.518919,42.642973 C141.473513,42.7905413 141.450811,42.9097293 141.450811,43.0005405 C141.450811,43.0913518 141.473513,43.1594592 141.518919,43.2048649 C141.564324,43.2502705 141.632432,43.2805405 141.723243,43.2956757 L142.177297,43.3864865 L142.211351,43.7837838 L139.838919,43.7837838 L139.872973,43.3864865 L140.190811,43.307027 C140.311892,43.2767566 140.415945,43.2332435 140.502973,43.1764865 C140.59,43.1197294 140.678918,43.0156764 140.769729,42.8643243 C140.860541,42.7129722 140.964594,42.4916231 141.081892,42.2002703 C141.199189,41.9089175 141.344864,41.5172998 141.518919,41.0254054 L142.835675,37.3362162 L142.835675,36.9275676 L143.857297,36.4508108 L146.002702,42.9891892 C146.025405,43.0572976 146.065135,43.1159457 146.121892,43.1651351 C146.178649,43.2143246 146.259999,43.2464864 146.365946,43.2616216 L146.978919,43.3864865 L147.012973,43.7837838 L143.925405,43.7837838 Z M143.221621,37.6994595 L143.153513,37.6994595 L142.131892,40.752973 L144.163783,40.752973 L143.221621,37.6994595 Z M153.945405,43.7837838 L148.553513,43.7837838 L148.587567,43.3864865 L149.052973,43.3297297 C149.204325,43.3145945 149.308378,43.2900002 149.365135,43.2559459 C149.421892,43.2218917 149.45027,43.1783786 149.45027,43.1254054 L149.45027,37.3248649 C149.45027,37.2718916 149.425676,37.2340542 149.376486,37.2113514 C149.327297,37.1886485 149.21946,37.1659461 149.052973,37.1432432 L148.587567,37.0864865 L148.553513,36.6891892 L151.527567,36.6891892 L151.493513,37.0864865 L150.925946,37.1432432 C150.774593,37.1583785 150.67054,37.1829728 150.613783,37.217027 C150.557026,37.2510813 150.528648,37.2945943 150.528648,37.3475676 L150.528648,43.3410811 L150.88054,43.3410811 C151.395137,43.3410811 151.799998,43.3354055 152.095135,43.3240541 C152.390271,43.3127026 152.619188,43.2862164 152.781892,43.2445946 C152.944595,43.2029728 153.058107,43.1443247 153.122432,43.0686486 C153.186757,42.9929726 153.237837,42.8945952 153.275675,42.7735135 L153.604865,41.5135135 L154.195135,41.5135135 L153.945405,43.7837838 Z M165.165405,41.8654054 C165.165405,42.4935167 164.910002,42.9702686 164.399189,43.2956757 C163.888375,43.6210827 163.194058,43.7837838 162.316216,43.7837838 L159.398918,43.7837838 L159.432973,43.3864865 L159.898378,43.3297297 C160.04973,43.3145945 160.153783,43.2900002 160.21054,43.2559459 C160.267297,43.2218917 160.295675,43.1783786 160.295675,43.1254054 L160.295675,37.3248649 C160.295675,37.2718916 160.271081,37.2340542 160.221891,37.2113514 C160.172702,37.1886485 160.064865,37.1659461 159.898378,37.1432432 L159.432973,37.0864865 L159.398918,36.6891892 L162.372973,36.6891892 C162.849732,36.6891892 163.247025,36.7308104 163.564864,36.8140541 C163.882704,36.8972977 164.138107,37.0108101 164.331081,37.1545946 C164.524055,37.2983791 164.662161,37.4648639 164.745405,37.6540541 C164.828649,37.8432442 164.87027,38.0437827 164.87027,38.2556757 C164.87027,38.4827038 164.826757,38.6964855 164.739729,38.897027 C164.652702,39.0975686 164.531622,39.2772965 164.376486,39.4362162 C164.22135,39.5951359 164.034055,39.7294589 163.814594,39.8391892 C163.595134,39.9489195 163.352974,40.0264863 163.088108,40.0718919 L163.088108,40.1286486 C163.466488,40.1589191 163.786214,40.2289184 164.047297,40.3386486 C164.308379,40.4483789 164.522161,40.5827019 164.688648,40.7416216 C164.855136,40.9005413 164.976215,41.0764855 165.051891,41.2694595 C165.127568,41.4624334 165.165405,41.6610801 165.165405,41.8654054 Z M163.689729,38.5621622 C163.689729,38.1308087 163.553514,37.782704 163.281081,37.5178378 C163.008647,37.2529716 162.573516,37.1205405 161.975675,37.1205405 L161.374054,37.1205405 L161.374054,39.9243243 L162.134594,39.912973 C162.422163,39.9054054 162.666215,39.8600004 162.866756,39.7767568 C163.067298,39.6935131 163.228107,39.5856763 163.349189,39.4532432 C163.47027,39.3208101 163.557297,39.1770278 163.61027,39.0218919 C163.663243,38.866756 163.689729,38.7135143 163.689729,38.5621622 Z M164.007567,41.9562162 C164.007567,41.69135 163.956487,41.4586497 163.854324,41.2581081 C163.752161,41.0575666 163.608379,40.8910817 163.422973,40.7586486 C163.237566,40.6262156 163.018109,40.5278382 162.764594,40.4635135 C162.511079,40.3991889 162.232974,40.367027 161.93027,40.367027 L161.374054,40.367027 L161.374054,43.1821622 L162.157297,43.3524324 L162.429729,43.3410811 C162.626487,43.3335135 162.819458,43.2994598 163.008648,43.2389189 C163.197838,43.1783781 163.366215,43.0913519 163.513783,42.9778378 C163.661352,42.8643238 163.78054,42.7224333 163.871351,42.5521622 C163.962162,42.381891 164.007567,42.1832444 164.007567,41.9562162 Z M171.621081,38.652973 C171.621081,38.1383758 171.482974,37.7505418 171.206756,37.4894595 C170.930539,37.2283771 170.516219,37.1167566 169.963783,37.1545946 L169.782162,37.1545946 C169.698918,37.1545946 169.615676,37.1583783 169.532432,37.1659459 C169.441621,37.1735136 169.343243,37.1772973 169.237297,37.1772973 L169.237297,40.1513514 L170.043243,40.2194595 C170.520002,40.1816214 170.90216,40.0359472 171.189729,39.7824324 C171.477298,39.5289177 171.621081,39.1524349 171.621081,38.652973 Z M172.631351,42.6486486 C172.72973,42.7848655 172.812972,42.8927023 172.881081,42.9721622 C172.949189,43.051622 173.009729,43.1140538 173.062702,43.1594595 C173.115675,43.2048651 173.166756,43.2370269 173.215945,43.2559459 C173.265135,43.274865 173.316215,43.2918918 173.369189,43.307027 L173.721081,43.3864865 L173.766486,43.7837838 L171.938918,43.7837838 L171.507567,43.0005405 L170.145405,40.6167568 L169.237297,40.6508108 L169.237297,43.1481081 C169.237297,43.2010813 169.263783,43.2408107 169.316756,43.2672973 C169.36973,43.2937839 169.475674,43.3145945 169.634594,43.3297297 L170.19081,43.3864865 L170.224864,43.7837838 L167.262162,43.7837838 L167.296216,43.3864865 L167.761621,43.3297297 C167.912973,43.3145945 168.017026,43.2900002 168.073783,43.2559459 C168.13054,43.2218917 168.158918,43.1783786 168.158918,43.1254054 L168.158918,37.3248649 C168.158918,37.2718916 168.134324,37.2340542 168.085135,37.2113514 C168.035945,37.1886485 167.928108,37.1659461 167.761621,37.1432432 L167.296216,37.0864865 L167.262162,36.6891892 L170.202162,36.6891892 C171.102707,36.6891892 171.761079,36.8499984 172.177297,37.1716216 C172.593515,37.4932449 172.801621,37.9151325 172.801621,38.4372973 C172.801621,38.9291916 172.650271,39.3378362 172.347567,39.6632432 C172.044863,39.9886503 171.655137,40.2345938 171.178378,40.4010811 L172.631351,42.6486486 Z M182.855675,40.2081081 C182.855675,40.7227053 182.75919,41.2070248 182.566216,41.6610811 C182.373242,42.1151374 182.10838,42.5124307 181.771621,42.852973 C181.434863,43.1935152 181.041353,43.4640531 180.591081,43.6645946 C180.140808,43.8651361 179.654597,43.9654054 179.132432,43.9654054 C178.610267,43.9654054 178.124056,43.8764874 177.673783,43.6986486 C177.223511,43.5208099 176.833785,43.2710827 176.504594,42.9494595 C176.175403,42.6278362 175.916217,42.2418941 175.727027,41.7916216 C175.537836,41.3413491 175.443243,40.8475703 175.443243,40.3102703 C175.443243,39.7956731 175.539728,39.3094617 175.732702,38.8516216 C175.925676,38.3937815 176.190538,37.9945963 176.527297,37.6540541 C176.864055,37.3135118 177.257565,37.042974 177.707837,36.8424324 C178.15811,36.6418909 178.644321,36.5416216 179.166486,36.5416216 C179.688651,36.5416216 180.174862,36.6305397 180.625135,36.8083784 C181.075407,36.9862171 181.465133,37.2378362 181.794324,37.5632432 C182.123515,37.8886503 182.382701,38.2745924 182.571891,38.7210811 C182.761082,39.1675698 182.855675,39.6632405 182.855675,40.2081081 Z M181.652432,40.332973 C181.652432,39.8108082 181.584325,39.3435156 181.448108,38.9310811 C181.311891,38.5186466 181.128379,38.1667582 180.897567,37.8754054 C180.666755,37.5840526 180.398109,37.3608116 180.091621,37.2056757 C179.785133,37.0505398 179.461623,36.972973 179.121081,36.972973 C178.780538,36.972973 178.460812,37.0429723 178.161891,37.182973 C177.862971,37.3229737 177.601893,37.5291878 177.378648,37.8016216 C177.155404,38.0740554 176.977568,38.4089169 176.845135,38.8062162 C176.712702,39.2035155 176.646486,39.6594569 176.646486,40.1740541 C176.646486,40.6962188 176.714593,41.1654033 176.85081,41.5816216 C176.987027,41.9978399 177.170539,42.3516202 177.401351,42.642973 C177.632163,42.9343258 177.898917,43.1575668 178.201621,43.3127027 C178.504325,43.4678386 178.825944,43.5454054 179.166486,43.5454054 C179.507028,43.5454054 179.826755,43.4735142 180.125675,43.3297297 C180.424596,43.1859452 180.687566,42.9778392 180.914594,42.7054054 C181.141622,42.4329716 181.32135,42.0981101 181.453783,41.7008108 C181.586216,41.3035115 181.652432,40.8475701 181.652432,40.332973 Z M189.186486,43.7837838 L189.22054,43.3864865 L189.606486,43.307027 C189.667027,43.2918918 189.691621,43.2540544 189.68027,43.1935135 C189.668918,43.1329727 189.636756,43.0648652 189.583783,42.9891892 L187.756216,40.3216216 L187.075135,40.9686486 L187.075135,43.1481081 C187.075135,43.2010813 187.101621,43.2408107 187.154594,43.2672973 C187.207567,43.2937839 187.313512,43.3145945 187.472432,43.3297297 L187.937837,43.3864865 L187.971891,43.7837838 L185.099999,43.7837838 L185.134054,43.3864865 L185.599459,43.3297297 C185.750811,43.3145945 185.854864,43.2900002 185.911621,43.2559459 C185.968378,43.2218917 185.996756,43.1783786 185.996756,43.1254054 L185.996756,37.3248649 C185.996756,37.2718916 185.972162,37.2340542 185.922972,37.2113514 C185.873783,37.1886485 185.765946,37.1659461 185.599459,37.1432432 L185.134054,37.0864865 L185.099999,36.6891892 L187.971891,36.6891892 L187.937837,37.0864865 L187.472432,37.1432432 C187.32108,37.1583785 187.217027,37.1829728 187.16027,37.217027 C187.103513,37.2510813 187.075135,37.2945943 187.075135,37.3475676 L187.075135,40.332973 L189.163783,38.3010811 C189.375676,38.0967557 189.534594,37.9245953 189.64054,37.7845946 C189.746486,37.6445939 189.807026,37.5291896 189.822162,37.4383784 C189.837297,37.3475671 189.816486,37.2794597 189.759729,37.2340541 C189.702972,37.1886484 189.614054,37.1583785 189.492972,37.1432432 L189.027567,37.0864865 L188.993513,36.6891892 L191.865405,36.6891892 L191.831351,37.0864865 L191.445405,37.1432432 C191.27135,37.1735137 191.102973,37.2397292 190.94027,37.3418919 C190.777566,37.4440546 190.560001,37.6275662 190.287567,37.8924324 L188.482702,39.6632432 L190.787026,42.8302703 C190.862703,42.9286491 190.927026,43.0099997 190.979999,43.0743243 C191.032973,43.138649 191.084053,43.1878377 191.133243,43.2218919 C191.182432,43.2559461 191.233513,43.2805405 191.286486,43.2956757 C191.339459,43.3108109 191.403783,43.3259459 191.479459,43.3410811 L191.808648,43.3864865 L191.842702,43.7837838 L189.186486,43.7837838 Z M199.172432,43.7837838 L193.61027,43.7837838 L193.644324,43.3864865 L194.109729,43.3297297 C194.261081,43.3145945 194.365134,43.2900002 194.421891,43.2559459 C194.478648,43.2218917 194.507026,43.1783786 194.507026,43.1254054 L194.507026,37.3248649 C194.507026,37.2718916 194.482432,37.2340542 194.433243,37.2113514 C194.384053,37.1886485 194.276216,37.1659461 194.109729,37.1432432 L193.644324,37.0864865 L193.61027,36.6891892 L199.183783,36.6891892 L199.183783,38.8005405 L198.638918,38.8005405 L198.366486,37.6994595 C198.328648,37.5708102 198.283243,37.468649 198.23027,37.392973 C198.177296,37.3172969 198.073243,37.2605407 197.918108,37.2227027 C197.762972,37.1848647 197.535947,37.1602703 197.237026,37.1489189 C196.938106,37.1375675 196.523786,37.1318919 195.994053,37.1318919 L195.585405,37.1318919 L195.585405,39.9583784 L195.891891,39.9583784 C196.111352,39.9583784 196.289188,39.9564865 196.425405,39.9527027 C196.561622,39.9489189 196.669458,39.9375677 196.748918,39.9186486 C196.828378,39.8997296 196.885134,39.8732434 196.919189,39.8391892 C196.953243,39.805135 196.981621,39.7616219 197.004324,39.7086486 L197.265405,38.9481081 L197.708108,38.9481081 L197.469729,41.3886486 L197.038378,41.3886486 L196.947567,40.6621622 C196.939999,40.6091889 196.926756,40.5656758 196.907837,40.5316216 C196.888918,40.4975674 196.841621,40.4691893 196.765945,40.4464865 C196.690269,40.4237837 196.582433,40.4086487 196.442432,40.4010811 C196.302431,40.3935135 196.107568,40.3897297 195.857837,40.3897297 L195.585405,40.3897297 L195.585405,43.3410811 L195.903243,43.3410811 C196.470813,43.3410811 196.917295,43.3354055 197.242702,43.3240541 C197.568109,43.3127026 197.815945,43.2862164 197.986216,43.2445946 C198.156487,43.2029728 198.273783,43.1443247 198.338108,43.0686486 C198.402432,42.9929726 198.457296,42.8945952 198.502702,42.7735135 L198.775135,41.7291892 L199.388108,41.7291892 L199.172432,43.7837838 Z M205.968648,38.652973 C205.968648,38.1383758 205.830541,37.7505418 205.554324,37.4894595 C205.278106,37.2283771 204.863786,37.1167566 204.311351,37.1545946 L204.129729,37.1545946 C204.046485,37.1545946 203.963243,37.1583783 203.879999,37.1659459 C203.789188,37.1735136 203.690811,37.1772973 203.584864,37.1772973 L203.584864,40.1513514 L204.39081,40.2194595 C204.867569,40.1816214 205.249728,40.0359472 205.537297,39.7824324 C205.824866,39.5289177 205.968648,39.1524349 205.968648,38.652973 Z M206.978918,42.6486486 C207.077297,42.7848655 207.16054,42.8927023 207.228648,42.9721622 C207.296756,43.051622 207.357296,43.1140538 207.41027,43.1594595 C207.463243,43.2048651 207.514323,43.2370269 207.563513,43.2559459 C207.612702,43.274865 207.663783,43.2918918 207.716756,43.307027 L208.068648,43.3864865 L208.114053,43.7837838 L206.286486,43.7837838 L205.855135,43.0005405 L204.492972,40.6167568 L203.584864,40.6508108 L203.584864,43.1481081 C203.584864,43.2010813 203.61135,43.2408107 203.664324,43.2672973 C203.717297,43.2937839 203.823242,43.3145945 203.982162,43.3297297 L204.538378,43.3864865 L204.572432,43.7837838 L201.609729,43.7837838 L201.643783,43.3864865 L202.109189,43.3297297 C202.260541,43.3145945 202.364594,43.2900002 202.421351,43.2559459 C202.478108,43.2218917 202.506486,43.1783786 202.506486,43.1254054 L202.506486,37.3248649 C202.506486,37.2718916 202.481892,37.2340542 202.432702,37.2113514 C202.383513,37.1886485 202.275676,37.1659461 202.109189,37.1432432 L201.643783,37.0864865 L201.609729,36.6891892 L204.549729,36.6891892 C205.450274,36.6891892 206.108646,36.8499984 206.524864,37.1716216 C206.941083,37.4932449 207.149189,37.9151325 207.149189,38.4372973 C207.149189,38.9291916 206.997839,39.3378362 206.695135,39.6632432 C206.39243,39.9886503 206.002704,40.2345938 205.525945,40.4010811 L206.978918,42.6486486 Z M213.173513,43.7837838 L213.207567,43.3864865 L213.763783,43.2956757 C213.86973,43.2729729 213.947296,43.2445948 213.996486,43.2105405 C214.045675,43.1764863 214.072161,43.1159464 214.075945,43.0289189 C214.079729,42.9418915 214.06081,42.8264872 214.019189,42.6827027 C213.977567,42.5389182 213.918919,42.3497309 213.843243,42.1151351 L213.559459,41.2297297 L211.22108,41.2297297 L210.948648,42.1037838 C210.872972,42.3156767 210.812432,42.4954047 210.767026,42.642973 C210.721621,42.7905413 210.698918,42.9097293 210.698918,43.0005405 C210.698918,43.0913518 210.721621,43.1594592 210.767026,43.2048649 C210.812432,43.2502705 210.880539,43.2805405 210.971351,43.2956757 L211.425405,43.3864865 L211.459459,43.7837838 L209.087026,43.7837838 L209.12108,43.3864865 L209.438918,43.307027 C209.56,43.2767566 209.664053,43.2332435 209.75108,43.1764865 C209.838108,43.1197294 209.927026,43.0156764 210.017837,42.8643243 C210.108648,42.7129722 210.212701,42.4916231 210.329999,42.2002703 C210.447297,41.9089175 210.592971,41.5172998 210.767026,41.0254054 L212.083783,37.3362162 L212.083783,36.9275676 L213.105405,36.4508108 L215.25081,42.9891892 C215.273513,43.0572976 215.313242,43.1159457 215.369999,43.1651351 C215.426756,43.2143246 215.508107,43.2464864 215.614053,43.2616216 L216.227026,43.3864865 L216.26108,43.7837838 L213.173513,43.7837838 Z M212.469729,37.6994595 L212.401621,37.6994595 L211.379999,40.752973 L213.411891,40.752973 L212.469729,37.6994595 Z M225.066486,41.0367568 L224.578378,41.0935135 C224.427026,41.1086487 224.322973,41.1332431 224.266216,41.1672973 C224.209458,41.2013515 224.18108,41.2448646 224.18108,41.2978378 L224.18108,43.0005405 L224.862161,43.0686486 L224.884864,43.3751351 C224.657836,43.4508112 224.413784,43.5245942 224.152702,43.5964865 C223.89162,43.6683787 223.621082,43.7308105 223.34108,43.7837838 C223.061079,43.836757 222.782974,43.8783782 222.506756,43.9086486 C222.230538,43.9389191 221.963784,43.9540541 221.706486,43.9540541 C221.154051,43.9540541 220.635677,43.8727035 220.151351,43.71 C219.667024,43.5472965 219.247028,43.3108124 218.891351,43.0005405 C218.535673,42.6902687 218.255676,42.3100023 218.051351,41.8597297 C217.847025,41.4094572 217.744864,40.8929759 217.744864,40.3102703 C217.744864,39.7124294 217.856485,39.1789213 218.079729,38.7097297 C218.302973,38.2405382 218.601889,37.8451367 218.976486,37.5235135 C219.351082,37.2018903 219.786213,36.9559468 220.281891,36.7856757 C220.777569,36.6154046 221.301618,36.5302703 221.854053,36.5302703 C222.194596,36.5302703 222.504863,36.5567565 222.784864,36.6097297 C223.064866,36.662703 223.269188,36.7118917 223.397837,36.7572973 L224.305945,36.587027 L224.305945,38.9140541 L223.772432,38.9140541 L223.465945,37.4610811 C223.246485,37.3248642 223.006217,37.2151356 222.745134,37.1318919 C222.484052,37.0486482 222.156758,37.007027 221.763243,37.007027 C221.362159,37.007027 220.98946,37.0864857 220.645134,37.2454054 C220.300808,37.4043251 220.003784,37.6237824 219.754053,37.9037838 C219.504322,38.1837852 219.307568,38.5167548 219.163783,38.9027027 C219.019999,39.2886506 218.948107,39.7086464 218.948107,40.1627027 C218.948107,40.6545971 219.010539,41.1048628 219.135405,41.5135135 C219.26027,41.9221642 219.44189,42.2740526 219.68027,42.5691892 C219.918649,42.8643258 220.209998,43.0932424 220.554324,43.2559459 C220.89865,43.4186495 221.294051,43.5 221.74054,43.5 C221.997838,43.5 222.249458,43.4735138 222.495405,43.4205405 C222.741352,43.3675673 222.95135,43.2994599 223.125405,43.2162162 L223.125405,41.2751351 C223.125405,41.2145943 223.098918,41.1729731 223.045945,41.1502703 C222.992972,41.1275675 222.887027,41.1086487 222.728107,41.0935135 L222.149188,41.0367568 L222.115134,40.6394595 L225.10054,40.6394595 L225.066486,41.0367568 Z M232.634594,43.7837838 L227.072432,43.7837838 L227.106486,43.3864865 L227.571891,43.3297297 C227.723243,43.3145945 227.827296,43.2900002 227.884053,43.2559459 C227.94081,43.2218917 227.969188,43.1783786 227.969188,43.1254054 L227.969188,37.3248649 C227.969188,37.2718916 227.944594,37.2340542 227.895405,37.2113514 C227.846215,37.1886485 227.738378,37.1659461 227.571891,37.1432432 L227.106486,37.0864865 L227.072432,36.6891892 L232.645945,36.6891892 L232.645945,38.8005405 L232.10108,38.8005405 L231.828648,37.6994595 C231.79081,37.5708102 231.745405,37.468649 231.692432,37.392973 C231.639458,37.3172969 231.535405,37.2605407 231.38027,37.2227027 C231.225134,37.1848647 230.998109,37.1602703 230.699188,37.1489189 C230.400268,37.1375675 229.985948,37.1318919 229.456215,37.1318919 L229.047567,37.1318919 L229.047567,39.9583784 L229.354053,39.9583784 C229.573514,39.9583784 229.75135,39.9564865 229.887567,39.9527027 C230.023784,39.9489189 230.13162,39.9375677 230.21108,39.9186486 C230.29054,39.8997296 230.347296,39.8732434 230.381351,39.8391892 C230.415405,39.805135 230.443783,39.7616219 230.466486,39.7086486 L230.727567,38.9481081 L231.17027,38.9481081 L230.931891,41.3886486 L230.50054,41.3886486 L230.409729,40.6621622 C230.402161,40.6091889 230.388918,40.5656758 230.369999,40.5316216 C230.35108,40.4975674 230.303783,40.4691893 230.228107,40.4464865 C230.152431,40.4237837 230.044595,40.4086487 229.904594,40.4010811 C229.764593,40.3935135 229.56973,40.3897297 229.319999,40.3897297 L229.047567,40.3897297 L229.047567,43.3410811 L229.365405,43.3410811 C229.932975,43.3410811 230.379457,43.3354055 230.704864,43.3240541 C231.030271,43.3127026 231.278107,43.2862164 231.448378,43.2445946 C231.618649,43.2029728 231.735945,43.1443247 231.80027,43.0686486 C231.864594,42.9929726 231.919458,42.8945952 231.964864,42.7735135 L232.237297,41.7291892 L232.85027,41.7291892 L232.634594,43.7837838 Z" id="commercial-brokerage" fill="#003E73"></path>
                <path d="M69.8434459,30.3397297 L70.8253378,30.2306757 C71.2615541,30.1759459 71.5753378,30.1078378 71.7662838,30.0259459 C71.9568243,29.9440541 72.0525,29.8487838 72.0525,29.7397297 L72.0525,14.6858108 C72.0525,14.6310811 72.0391216,14.5860811 72.0115541,14.5491892 C71.9843919,14.5131081 71.9203378,14.477027 71.8206081,14.4401351 C71.720473,14.4040541 71.5753378,14.372027 71.3843919,14.3448649 C71.1934459,14.3177027 70.9433108,14.295 70.6343919,14.2763514 L69.8706081,14.1672973 L69.7891216,13.7310811 L83.9702027,13.7310811 L84.1611486,19.322027 L83.4520946,19.322027 L83.2068243,18.422027 C82.9883108,17.6404054 82.7337162,16.9860811 82.4430405,16.4582432 C82.1519595,15.9312162 81.7838514,15.5039189 81.3383108,15.1767568 C80.8927703,14.8491892 80.3519595,14.6221622 79.7158784,14.4948649 C79.0793919,14.367973 78.3066892,14.3039189 77.3977703,14.3039189 L75.5706081,14.3310811 L75.5706081,21.8035135 L76.5796622,21.7763514 C77.6523649,21.7402703 78.4566892,21.5764865 78.9930405,21.2854054 C79.5293919,20.9947297 79.9157432,20.4766216 80.1520946,19.7310811 L80.4520946,18.8582432 L81.0249324,18.8582432 L80.3430405,25.4035135 L79.7977703,25.3763514 L79.6887162,24.5306757 C79.6518243,24.1309459 79.5796622,23.7993243 79.4706081,23.5354054 C79.3615541,23.2718919 79.1839865,23.0582432 78.9387162,22.8944595 C78.6934459,22.7306757 78.3658784,22.6082432 77.9568243,22.5263514 C77.5477703,22.4444595 77.0247973,22.3945946 76.3887162,22.3763514 L75.5706081,22.3491892 L75.5706081,30.1216216 L77.8339865,30.2035135 C78.7793919,30.2035135 79.5885811,30.1078378 80.2611486,29.9168919 C80.9337162,29.7259459 81.5110135,29.4490541 81.9930405,29.085 C82.4746622,28.7217568 82.8792568,28.2806757 83.2068243,27.7625676 C83.5339865,27.2444595 83.8157432,26.6578378 84.0520946,26.0035135 L84.3249324,25.1854054 L85.0339865,25.1854054 L84.3249324,30.7759459 L69.7615541,30.7759459 L69.8434459,30.3397297 Z" id="Fill-1" fill="#003E73"></path>
                <path d="M86.9152297,30.3397297 L87.9518514,30.2035135 C88.4059054,30.167027 88.7152297,30.1033784 88.8790135,30.0121622 C89.0423919,29.9217568 89.1242838,29.8309459 89.1242838,29.7397297 L89.1242838,14.712973 C89.1242838,14.6582432 89.1109054,14.6083784 89.0833378,14.562973 C89.0561757,14.517973 88.9969865,14.4810811 88.9061757,14.4539189 C88.8149595,14.4267568 88.6742838,14.3951351 88.4833378,14.3582432 C88.2923919,14.3221622 88.0422568,14.295 87.7333378,14.2763514 L86.9423919,14.1672973 L86.8609054,13.7310811 L95.2605,13.7310811 L95.1786081,14.1672973 L93.8423919,14.3039189 C93.0421216,14.3582432 92.6423919,14.5131081 92.6423919,14.7672973 L92.6423919,30.1216216 L94.1967162,30.2306757 C95.0513108,30.2306757 95.7741486,30.1447297 96.3652297,29.9716216 C96.9555,29.7989189 97.478473,29.5309459 97.9329324,29.1668919 C98.3873919,28.8032432 98.787527,28.3309459 99.1329324,27.7487838 C99.4783378,27.167027 99.8326622,26.4668919 100.196716,25.6487838 L100.523878,24.7487838 L101.232932,24.7487838 L100.441986,30.7759459 L86.8333378,30.7759459 L86.9152297,30.3397297 Z" id="Fill-3" fill="#003E73"></path>
                <path d="M102.841824,30.3397297 L103.878446,30.2035135 C104.3325,30.167027 104.641824,30.1033784 104.805608,30.0121622 C104.968986,29.9217568 105.050878,29.8309459 105.050878,29.7397297 L105.050878,14.712973 C105.050878,14.6582432 105.0375,14.6083784 105.009932,14.562973 C104.98277,14.517973 104.923581,14.4810811 104.83277,14.4539189 C104.741554,14.4267568 104.600878,14.3951351 104.409932,14.3582432 C104.218986,14.3221622 103.968851,14.295 103.659932,14.2763514 L102.868986,14.1672973 L102.7875,13.7310811 L111.187095,13.7310811 L111.105203,14.1672973 L109.768986,14.3039189 C108.968716,14.3582432 108.568986,14.5131081 108.568986,14.7672973 L108.568986,30.1216216 L110.123311,30.2306757 C110.977905,30.2306757 111.700743,30.1447297 112.291824,29.9716216 C112.882095,29.7989189 113.405068,29.5309459 113.859527,29.1668919 C114.313986,28.8032432 114.714122,28.3309459 115.059527,27.7487838 C115.404932,27.167027 115.759257,26.4668919 116.123311,25.6487838 L116.450473,24.7487838 L117.159527,24.7487838 L116.368581,30.7759459 L102.759932,30.7759459 L102.841824,30.3397297 Z" id="Fill-5" fill="#003E73"></path>
                <path d="M118.768865,30.3397297 L119.750757,30.2306757 C120.186973,30.1759459 120.500351,30.1078378 120.691297,30.0259459 C120.882243,29.9440541 120.977919,29.8487838 120.977919,29.7397297 L120.977919,14.6858108 C120.977919,14.6310811 120.96373,14.5860811 120.936973,14.5491892 C120.909811,14.5131081 120.845757,14.477027 120.746027,14.4401351 C120.645486,14.4040541 120.500351,14.372027 120.309811,14.3448649 C120.118865,14.3177027 119.86873,14.295 119.559811,14.2763514 L118.795622,14.1672973 L118.714135,13.7310811 L132.895622,13.7310811 L133.086162,19.322027 L132.377514,19.322027 L132.132243,18.422027 C131.91373,17.6404054 131.65873,16.9860811 131.368054,16.4582432 C131.077378,15.9312162 130.70927,15.5039189 130.26373,15.1767568 C129.817784,14.8491892 129.276973,14.6221622 128.641297,14.4948649 C128.004405,14.367973 127.231703,14.3039189 126.322784,14.3039189 L124.496027,14.3310811 L124.496027,21.8035135 L125.504676,21.7763514 C126.577784,21.7402703 127.382108,21.5764865 127.918054,21.2854054 C128.454405,20.9947297 128.840757,20.4766216 129.077514,19.7310811 L129.377514,18.8582432 L129.949946,18.8582432 L129.268054,25.4035135 L128.722784,25.3763514 L128.614135,24.5306757 C128.576838,24.1309459 128.505081,23.7993243 128.395622,23.5354054 C128.286568,23.2718919 128.109,23.0582432 127.86373,22.8944595 C127.618054,22.7306757 127.290892,22.6082432 126.881838,22.5263514 C126.473189,22.4444595 125.949811,22.3945946 125.314135,22.3763514 L124.496027,22.3491892 L124.496027,30.1216216 L126.759,30.2035135 C127.704405,30.2035135 128.513595,30.1078378 129.186568,29.9168919 C129.85873,29.7259459 130.436027,29.4490541 130.918459,29.085 C131.399676,28.7217568 131.80427,28.2806757 132.132243,27.7625676 C132.459405,27.2444595 132.741162,26.6578378 132.977108,26.0035135 L133.250351,25.1854054 L133.959,25.1854054 L133.250351,30.7759459 L118.686568,30.7759459 L118.768865,30.3397297 Z" id="Fill-7" fill="#003E73"></path>
                <path d="M143.020338,21.9400135 C144.244662,21.9039324 145.203851,21.5674459 145.898716,20.9309595 C146.593176,20.294473 146.940203,19.3583919 146.940203,18.1219054 C146.940203,16.9040676 146.570068,15.9493378 145.830203,15.258527 C145.089932,14.5673108 144.034662,14.2401486 142.663986,14.2766351 L142.088311,14.2766351 C141.924122,14.2766351 141.750203,14.2859595 141.56777,14.3037973 L141.56777,21.7215 C141.731959,21.7583919 141.974392,21.8037973 142.293851,21.8581216 C142.613311,21.9128514 142.856149,21.9400135 143.020338,21.9400135 L143.020338,21.9400135 Z M135.704392,30.3396081 L136.849662,30.2305541 C137.213311,30.194473 137.504392,30.1308243 137.7225,30.0396081 C137.940608,29.9487973 138.049662,29.8486622 138.049662,29.7396081 L138.049662,14.6856892 C138.049662,14.6309595 138.035878,14.5859595 138.008716,14.549473 C137.981554,14.5129865 137.9175,14.4769054 137.81777,14.4400135 C137.717635,14.4039324 137.5725,14.3719054 137.381554,14.3447432 C137.190608,14.3175811 136.940473,14.2948784 136.631554,14.2766351 L135.731554,14.1675811 L135.649662,13.7309595 L143.776824,13.7037973 C146.103446,13.7037973 147.840608,14.0678514 148.985878,14.7947432 C150.131149,15.5220405 150.703581,16.5947432 150.703581,18.0128514 C150.703581,19.0673108 150.335473,19.9762297 149.599662,20.7400135 C148.863041,21.5033919 147.858446,22.0401486 146.585878,22.3490676 L150.131149,27.9396081 C150.403986,28.3758243 150.644797,28.7354189 150.853581,29.0171757 C151.06277,29.2989324 151.267095,29.5259595 151.467365,29.6986622 C151.66723,29.8717703 151.876419,29.9986622 152.094932,30.0805541 C152.313041,30.1624459 152.56723,30.2216351 152.858311,30.2577162 L153.294932,30.3396081 L153.403581,30.7758243 L147.676419,30.7758243 L147.185473,29.8215 L143.103446,22.5943378 C142.920203,22.5582568 142.659932,22.5128514 142.321419,22.4581216 C141.982905,22.4037973 141.731959,22.3401486 141.56777,22.2671757 L141.56777,29.8215 C141.56777,30.0217703 142.021824,30.1579865 142.931149,30.2305541 L143.913041,30.3396081 L143.994932,30.7758243 L135.6225,30.7758243 L135.704392,30.3396081 Z" id="Fill-9" fill="#003E73"></path>
                <path d="M154.058108,30.3397297 L154.849054,30.2578378 C155.212703,30.2213514 155.507838,30.1625676 155.73527,30.0806757 C155.962297,29.9987838 156.144324,29.867027 156.280541,29.685 C156.416757,29.5033784 156.512838,29.2625676 156.566757,28.9625676 C156.621486,28.6625676 156.657973,28.2766216 156.676216,27.8035135 L157.030541,15.3948649 C156.703378,14.7766216 156.148378,14.412973 155.367162,14.3039189 L154.385676,14.1948649 L154.303378,13.7310811 L160.848649,13.7310811 L165.212432,26.0035135 L165.294324,26.0035135 L169.739595,13.7310811 L176.312027,13.7310811 L176.22973,14.1948649 L174.757703,14.3039189 C174.375405,14.3404054 174.098514,14.412973 173.925811,14.522027 C173.752703,14.6310811 173.666351,14.7494595 173.666351,14.8763514 L173.966351,28.4035135 C173.966351,28.7671622 173.984189,29.0627027 174.021081,29.2897297 C174.057162,29.5171622 174.12527,29.6947297 174.225405,29.8216216 C174.325135,29.9489189 174.461757,30.0356757 174.634865,30.0806757 C174.807568,30.1260811 175.02973,30.167027 175.302568,30.2035135 L176.284459,30.3397297 L176.366351,30.7759459 L167.993919,30.7759459 L168.075811,30.3397297 L169.412027,30.2035135 C169.793919,30.167027 170.052973,30.0218919 170.189189,29.7668919 C170.325811,29.5122973 170.384189,29.04 170.366757,28.3487838 L170.039595,15.122027 L169.930135,15.122027 L164.202973,30.6121622 L163.303378,30.6121622 L157.903378,15.7491892 C157.866892,15.677027 157.816622,15.612973 157.753378,15.5582432 C157.689324,15.5039189 157.648378,15.4585135 157.630946,15.422027 L157.330541,27.9668919 C157.312297,28.4035135 157.326081,28.7627027 157.371486,29.0444595 C157.416892,29.3262162 157.508108,29.5536486 157.644324,29.7259459 C157.780946,29.8990541 157.980811,30.0218919 158.244324,30.0944595 C158.507838,30.167027 158.848378,30.2213514 159.267162,30.2578378 L160.058108,30.3397297 L160.139595,30.7759459 L153.976216,30.7759459 L154.058108,30.3397297 Z" id="Fill-11" fill="#003E73"></path>
                <path d="M184.547838,16.9492703 L184.438378,16.9492703 L182.202568,23.3850811 L186.62027,23.3850811 L184.547838,16.9492703 Z M181.220676,26.1844054 C180.947838,26.9992703 180.738649,27.6556216 180.593108,28.1530541 C180.447568,28.6508919 180.402162,29.0445405 180.456892,29.3344054 C180.511622,29.6242703 180.670541,29.8277838 180.934054,29.9453514 C181.197568,30.0633243 181.602162,30.1492703 182.147838,30.2031892 L182.775,30.2895405 L182.856892,30.776027 L176.775,30.776027 L176.856892,30.2850811 L177.375405,30.2031892 C177.775135,30.1492703 178.106757,30.0633243 178.370676,29.9449459 C178.633784,29.826973 178.888784,29.5861622 179.134054,29.2233243 C179.37973,28.8600811 179.642838,28.3338649 179.925405,27.6438649 C180.206757,26.9546757 180.566351,26.0108919 181.002568,24.8125135 L184.111622,16.1806216 L183.893108,15.2554865 C184.111622,15.2007568 184.343108,15.1058919 184.588784,14.9692703 C184.834054,14.8330541 185.074865,14.6741351 185.311216,14.4925135 C185.547568,14.3112973 185.761216,14.1162973 185.952162,13.9075135 C186.143108,13.6987297 186.283784,13.4858919 186.375,13.2673784 L186.865946,13.2673784 L191.719865,27.4257568 C191.920135,27.9884595 192.097297,28.4425135 192.252162,28.7875135 C192.406216,29.1325135 192.57,29.4049459 192.743108,29.604 C192.915811,29.8038649 193.097432,29.9445405 193.288378,30.0264324 C193.479324,30.1083243 193.711216,30.1581892 193.983649,30.176027 L194.801757,30.2850811 L194.883649,30.776027 L186.42973,30.776027 L186.511216,30.2850811 L187.302162,30.2031892 C187.62973,30.1675135 187.879054,30.1038649 188.052162,30.0134595 C188.224459,29.9226486 188.333919,29.7779189 188.379324,29.5784595 C188.42473,29.3798108 188.415811,29.1215676 188.352162,28.8049459 C188.288514,28.4879189 188.174595,28.0942703 188.011216,27.6235946 L186.811216,23.9583243 L181.984459,23.9583243 L181.220676,26.1844054 Z" id="Fill-13" fill="#003E73"></path>
                <path d="M198.865338,16.5674189 L198.783446,16.5674189 L198.810608,27.8851216 C198.810608,28.3399865 198.84223,28.7080946 198.906284,28.9898514 C198.969527,29.2716081 199.078581,29.4986351 199.233446,29.6713378 C199.3875,29.8444459 199.597095,29.9713378 199.860608,30.0532297 C200.123716,30.1351216 200.446824,30.1943108 200.829122,30.2307973 L201.646824,30.3398514 L201.728716,30.7760676 L195.565338,30.7760676 L195.64723,30.3398514 L196.410608,30.2307973 C197.065338,30.1760676 197.515338,29.9806622 197.760608,29.6441757 C198.006284,29.3080946 198.129122,28.6760676 198.129122,27.7489054 L198.211014,16.2126892 C197.938176,15.7403919 197.606149,15.3313378 197.215338,14.985527 C196.824122,14.640527 196.365203,14.4220135 195.838176,14.3312027 L195.265338,14.1674189 L195.183446,13.7312027 L201.265338,13.7312027 L210.755878,25.6489054 L210.837365,25.6489054 L210.810203,16.6493108 C210.810203,16.1948514 210.778581,15.8222838 210.714932,15.5312027 C210.650878,15.240527 210.541824,15.0086351 210.38777,14.835527 C210.232905,14.6632297 210.028176,14.535527 209.773986,14.4540405 C209.518986,14.3717432 209.19223,14.3129595 208.792095,14.276473 L208.001149,14.1674189 L207.919662,13.7312027 L214.055878,13.7312027 L213.973986,14.1674189 L213.210203,14.276473 C212.573716,14.3312027 212.128176,14.5266081 211.873986,14.8626892 C211.618986,15.1995811 211.4925,15.840527 211.4925,16.785527 L211.410203,30.9398514 L210.455878,30.9398514 L198.865338,16.5674189 Z" id="Fill-15" fill="#003E73"></path>
                <path d="M218.392095,16.5674189 L218.310203,16.5674189 L218.337365,27.8851216 C218.337365,28.3399865 218.368986,28.7080946 218.433041,28.9898514 C218.496284,29.2716081 218.605338,29.4986351 218.760203,29.6713378 C218.914257,29.8444459 219.123851,29.9713378 219.387365,30.0532297 C219.650473,30.1351216 219.973581,30.1943108 220.355878,30.2307973 L221.173581,30.3398514 L221.255473,30.7760676 L215.092095,30.7760676 L215.173986,30.3398514 L215.937365,30.2307973 C216.592095,30.1760676 217.042095,29.9806622 217.287365,29.6441757 C217.533041,29.3080946 217.655878,28.6760676 217.655878,27.7489054 L217.73777,16.2126892 C217.464932,15.7403919 217.132905,15.3313378 216.742095,14.985527 C216.350878,14.640527 215.891959,14.4220135 215.364932,14.3312027 L214.792095,14.1674189 L214.710203,13.7312027 L220.792095,13.7312027 L230.282635,25.6489054 L230.364122,25.6489054 L230.336959,16.6493108 C230.336959,16.1948514 230.305338,15.8222838 230.241689,15.5312027 C230.177635,15.240527 230.068581,15.0086351 229.914527,14.835527 C229.759662,14.6632297 229.554932,14.535527 229.300743,14.4540405 C229.045743,14.3717432 228.718986,14.3129595 228.318851,14.276473 L227.527905,14.1674189 L227.446419,13.7312027 L233.582635,13.7312027 L233.500743,14.1674189 L232.736959,14.276473 C232.100068,14.3312027 231.654932,14.5266081 231.400743,14.8626892 C231.145743,15.1995811 231.018851,15.840527 231.018851,16.785527 L230.936959,30.9398514 L229.982635,30.9398514 L218.392095,16.5674189 Z" id="Fill-17" fill="#003E73"></path>
                <rect id="Rectangle" fill="url(#linearGradient-1)" x="0" y="0" width="60" height="60" rx="2"></rect>
                <path d="M15.6716757,35.3282027 C16.3742432,35.3282027 17.1781622,34.767527 18.0838378,33.6457703 C18.9891081,32.5244189 20.0634324,30.7876622 21.3068108,28.4363108 C21.3878919,28.2473919 21.4957297,27.9903649 21.6311351,27.6660405 C21.7661351,27.3417162 21.8946486,27.0109054 22.0162703,26.6727973 C22.1378919,26.3350946 22.2392432,26.0176622 22.3203243,25.7200946 C22.4014054,25.4229324 22.4419459,25.2202297 22.4419459,25.1119865 C22.3608649,24.6798243 22.2120811,24.2545541 21.996,23.8349595 C21.7791081,23.4161757 21.5095135,23.0444189 21.1851892,22.7200946 C20.8608649,22.3957703 20.5093784,22.1322568 20.1311351,21.9295541 C19.7520811,21.7268514 19.3742432,21.6255 18.996,21.6255 C18.6984324,21.6255 18.4487027,21.6932027 18.246,21.8282027 C18.0432973,21.9636081 17.8203243,22.1391486 17.5770811,22.3552297 C17.1445135,22.7877973 16.7188378,23.4092838 16.3000541,24.2200946 C15.8808649,25.0309054 15.4953243,25.9094189 15.1446486,26.8552297 C14.7931622,27.8018514 14.5093784,28.7744189 14.2932973,29.7741486 C14.0764054,30.7742838 13.968973,31.6795541 13.968973,32.4903649 C13.968973,33.4094189 14.1173514,34.1119865 14.4149189,34.598473 C14.7120811,35.0849595 15.1308649,35.3282027 15.6716757,35.3282027 M23.0095135,38.3282027 C22.7662703,38.3282027 22.4484324,38.2402297 22.0568108,38.0646892 C21.6647838,37.8883378 21.2796486,37.6730676 20.9014054,37.4160405 C20.5227568,37.1594189 20.1984324,36.8959054 19.9284324,36.6255 C19.658027,36.3555 19.523027,36.1256351 19.523027,35.9363108 C19.523027,35.5309054 19.6916757,34.7950946 20.0297838,33.7268514 C20.3674865,32.6594189 20.8337027,31.3146892 21.4284324,29.6930676 L21.2662703,29.6930676 C20.4822162,31.0450946 19.7662703,32.2471216 19.1176216,33.3011757 C18.468973,34.3552297 17.853973,35.2471216 17.273027,35.9768514 C16.6916757,36.7065811 16.1107297,37.2676622 15.5297838,37.6592838 C14.9484324,38.0509054 14.3200541,38.2471216 13.6446486,38.2471216 C12.4823514,38.2471216 11.496,37.8417162 10.6851892,37.0309054 C9.87437838,36.2200946 9.46897297,35.1121216 9.46897297,33.7065811 C9.46897297,32.7336081 9.61694595,31.7472568 9.91491892,30.7471216 C10.2120811,29.7473919 10.6105946,28.767527 11.1108649,27.8079324 C11.6107297,26.8487432 12.1985676,25.9227973 12.8743784,25.0309054 C13.5497838,24.1390135 14.2527568,23.3148243 14.9824865,22.5579324 C15.9822162,21.5582027 16.9551892,20.7944189 17.9014054,20.2673919 C18.8472162,19.7403649 19.7520811,19.4768514 20.6176216,19.4768514 C21.0769459,19.4768514 21.4551892,19.598473 21.7527568,19.8417162 C22.0499189,20.0849595 22.2858649,20.4092838 22.4622162,20.8146892 C22.6377568,21.2200946 22.7524865,21.6863108 22.8068108,22.2133378 C22.8607297,22.7403649 22.8878919,23.2742838 22.8878919,23.8146892 L23.0905946,23.8146892 L26.1311351,13.5579324 C26.1850541,13.2879324 26.1919459,13.0511757 26.1514054,12.848473 C26.1108649,12.6457703 26.0095135,12.5310405 25.8473514,12.5038784 L22.6041081,12.098473 L22.7257297,11.5714459 L31.4419459,10.4363108 L26.0905946,27.5849595 L23.6987027,35.3687432 L25.523027,35.652527 L28.2797838,32.0849595 L28.6446486,32.4092838 C28.2120811,33.3011757 27.7458649,34.1055 27.246,34.8214459 C26.7453243,35.5377973 26.2458649,36.1592838 25.746,36.6863108 C25.2457297,37.2133378 24.7592432,37.6187432 24.2865405,37.902527 C23.8134324,38.1863108 23.3877568,38.3282027 23.0095135,38.3282027" id="Fill-62" fill="#FEFEFE"></path>
                <path d="M40.2390811,37.4767703 C40.5901622,37.4767703 40.9347568,37.3827162 41.2728649,37.1925811 C41.6105676,37.0032568 41.928,36.7592027 42.2255676,36.4608243 C42.7388108,35.9459595 43.2390811,35.2413649 43.7255676,34.3470405 C44.2120541,33.4527162 44.6377297,32.4971757 45.0025946,31.4812297 C45.3674595,30.4652838 45.6577297,29.4351486 45.8742162,28.3920405 C46.0902973,27.3489324 46.1985405,26.4209595 46.1985405,25.6073108 C46.1985405,24.4697432 46.0092162,23.6297432 45.630973,23.0873108 C45.2523243,22.5452838 44.7658378,22.2740676 44.1715135,22.2740676 C43.7117838,22.2740676 43.2390811,22.5047432 42.7525946,22.9652838 C42.2661081,23.4262297 41.7658378,24.0631216 41.2525946,24.8755541 C40.7389459,25.6892027 40.2188108,26.6646081 39.6917838,27.8021757 C39.1647568,28.9405541 38.6308378,30.2005541 38.0904324,31.5825811 C38.0361081,31.7179865 37.9619189,31.9283919 37.8674595,32.2129865 C37.7725946,32.4979865 37.685027,32.8028514 37.6039459,33.1275811 C37.5228649,33.4531216 37.4482703,33.7648784 37.380973,34.0624459 C37.3132703,34.3608243 37.2796216,34.5777162 37.2796216,34.7127162 C37.3607027,35.0378514 37.5025946,35.3629865 37.7052973,35.688527 C37.908,36.014473 38.1443514,36.3120405 38.4147568,36.5828514 C38.6847568,36.8540676 38.9754324,37.0709595 39.2863784,37.2327162 C39.5969189,37.3956892 39.9147568,37.4767703 40.2390811,37.4767703 L40.2390811,37.4767703 Z M27.1039459,47.2470405 L28.1985405,47.0848784 C28.7393514,47.0309595 29.1175946,46.9571757 29.3336757,46.8627162 C29.5501622,46.7674459 29.6851622,46.6125811 29.7390811,46.3969054 L36.4282703,22.3956892 L34.685027,22.233527 L32.0498919,26.0443378 L31.6444865,25.679473 C32.0498919,24.7875811 32.4958378,23.9633919 32.9823243,23.2065 C33.4688108,22.4504189 33.9617838,21.794473 34.4620541,21.2402838 C34.9619189,20.6865 35.4552973,20.2543378 35.9417838,19.9429865 C36.4282703,19.6324459 36.8875946,19.4767703 37.3201622,19.4767703 C37.5362432,19.4767703 37.8334054,19.5647432 38.2120541,19.7402838 C38.5902973,19.9166351 38.9620541,20.1323108 39.3269189,20.3889324 C39.6917838,20.6459595 40.0092162,20.9228514 40.2796216,21.2200135 C40.5496216,21.5179865 40.685027,21.8013649 40.685027,22.0713649 C40.685027,22.5578514 40.5634054,23.1862297 40.3201622,23.9565 C40.0769189,24.7267703 39.8336757,25.4633919 39.5904324,26.1659595 L39.8336757,26.1659595 C40.9144865,23.8693378 41.9685405,22.1869054 42.9958378,21.1186622 C44.0227297,20.0516351 45.185027,19.5173108 46.4823243,19.5173108 C47.6985405,19.5173108 48.678,20.0646081 49.4215135,21.1592027 C50.1646216,22.2537973 50.5363784,23.6666351 50.5363784,25.3956892 C50.5363784,26.9362297 50.2388108,28.4767703 49.6444865,30.0173108 C49.0497568,31.5578514 48.2661081,32.9431216 47.2931351,34.1727162 C46.3201622,35.4031216 45.2052973,36.4024459 43.9485405,37.1727162 C42.6917838,37.9429865 41.3875946,38.3281216 40.0363784,38.3281216 C39.3877297,38.3281216 38.7861081,38.1456892 38.2323243,37.7808243 C37.6781351,37.4159595 37.2524595,36.9497432 36.9552973,36.3821757 L36.7931351,36.3821757 L34.0363784,46.4386622 C33.9820541,46.6267703 34.0834054,46.7682568 34.3404324,46.8627162 C34.5970541,46.9563649 35.1038108,47.0305541 35.8607027,47.0848784 L37.5634054,47.2555541 L37.6039459,47.9362297 L26.9823243,47.9362297 L27.1039459,47.2470405 Z" id="Fill-64" fill="#FEFEFE"></path>
            </g>
        </g>
    </g>
</svg>