<?xml version="1.0" encoding="UTF-8"?>
<svg width="219px" height="48px" viewBox="0 0 219 48" version="1.1" xmlns="http://www.w3.org/2000/svg" xmlns:xlink="http://www.w3.org/1999/xlink">
    <!-- Generator: Sketch 49.3 (51167) - http://www.bohemiancoding.com/sketch -->
    <title>Sperry Logo</title>
    <desc>Created with Sketch.</desc>
    <defs></defs>
    <g id="Home" stroke="none" stroke-width="1" fill="none" fill-rule="evenodd">
        <g id="home-v3" transform="translate(-1181.000000, -24.000000)">
            <g id="Sperry-Logo" transform="translate(1181.000000, 24.000000)">
                <g id="Group-57" transform="translate(0.000000, 0.277500)">
                    <path d="M71.20605,42.923925 C71.20605,43.798425 70.92705,44.504925 70.36905,45.044175 C69.8118,45.582675 69.0723,45.851925 68.15055,45.851925 C67.3098,45.851925 66.6063,45.611925 66.04155,45.131175 C65.40255,44.585925 65.08305,43.875675 65.08305,42.998175 C65.08305,42.136425 65.40705,41.427675 66.05505,40.872675 C66.62355,40.387425 67.3443,40.144425 68.2173,40.144425 C69.2703,40.144425 70.1343,40.577925 70.80855,41.444925 L70.0683,41.861175 C69.5703,41.261925 68.9313,40.961925 68.15055,40.961925 C67.54305,40.961925 67.0338,41.129925 66.62355,41.467425 C66.1473,41.858925 65.90955,42.369675 65.90955,42.998175 C65.90955,43.602675 66.1143,44.093175 66.52455,44.469675 C66.9348,44.846175 67.4763,45.034425 68.15055,45.034425 C69.2088,45.034425 69.89655,44.571675 70.2138,43.644675 L67.9863,43.644675 L67.9863,42.842175 L71.20605,42.842175 L71.20605,42.923925 Z" id="Fill-2" fill="#002D64"></path>
                    <polygon id="Fill-4" fill="#002D64" points="80.64075 45.69615 76.15125 45.69615 76.15125 40.31565 76.94475 40.31565 76.94475 44.89365 80.64075 44.89365"></polygon>
                    <path d="M89.85135,42.998325 C89.85135,42.369825 89.61285,41.858325 89.1366,41.467575 C88.7271,41.130075 88.21785,40.962075 87.61035,40.962075 C86.9436,40.962075 86.40135,41.154075 85.98285,41.538075 C85.5651,41.922075 85.3551,42.408825 85.3551,42.998325 C85.3551,43.608075 85.5606,44.099325 85.9701,44.473575 C86.38035,44.847075 86.92635,45.034575 87.61035,45.034575 C88.2891,45.034575 88.83135,44.846325 89.2401,44.469825 C89.64735,44.093325 89.85135,43.602825 89.85135,42.998325 M90.6771,42.998325 C90.6771,43.880325 90.35535,44.593575 89.71185,45.138825 C89.14785,45.614325 88.4466,45.852075 87.61035,45.852075 C86.76285,45.852075 86.05785,45.612075 85.49385,45.131325 C84.85035,44.586075 84.5286,43.875075 84.5286,42.998325 C84.5286,42.136575 84.85485,41.427825 85.50735,40.872825 C86.08035,40.387575 86.78085,40.144575 87.61035,40.144575 C88.44285,40.144575 89.1411,40.387575 89.70585,40.872825 C90.3531,41.427825 90.6771,42.136575 90.6771,42.998325" id="Fill-6" fill="#002D64"></path>
                    <path d="M99.4446,44.893425 C100.10535,44.893425 100.43685,44.648175 100.43685,44.158425 C100.43685,43.632675 100.14735,43.370175 99.5706,43.370175 L96.41685,43.370175 L96.41685,44.893425 L99.4446,44.893425 Z M99.5046,42.567675 C99.72435,42.567675 99.90885,42.496425 100.05585,42.354675 C100.20435,42.212175 100.2786,42.038925 100.2786,41.834925 C100.2786,41.615925 100.21185,41.441925 100.07985,41.312175 C99.9471,41.183175 99.76635,41.117925 99.5376,41.117925 L96.41685,41.117925 L96.41685,42.567675 L99.5046,42.567675 Z M100.4301,42.923925 C100.9761,43.131675 101.24985,43.584675 101.24985,44.283675 C101.24985,45.225675 100.64685,45.695925 99.43785,45.695925 L95.6226,45.695925 L95.6226,40.315425 L99.4911,40.315425 C99.97635,40.315425 100.35735,40.448925 100.63485,40.716675 C100.91235,40.984425 101.0511,41.340675 101.0511,41.786925 C101.0511,42.277425 100.8441,42.656175 100.4301,42.923925 Z" id="Fill-8" fill="#002D64"></path>
                    <path d="M109.600725,43.689675 L108.381975,41.081925 L107.147475,43.689675 L109.600725,43.689675 Z M111.405225,45.695925 L110.538225,45.695925 L109.986225,44.492175 L106.761975,44.492175 L106.209975,45.695925 L105.342225,45.695925 L107.874975,40.315425 L108.873225,40.315425 L111.405225,45.695925 Z" id="Fill-10" fill="#002D64"></path>
                    <polygon id="Fill-12" fill="#002D64" points="120.33765 45.69615 115.8489 45.69615 115.8489 40.31565 116.6424 40.31565 116.6424 44.89365 120.33765 44.89365"></polygon>
                    <path d="M134.004675,43.689675 L132.785175,41.081925 L131.551425,43.689675 L134.004675,43.689675 Z M135.809925,45.695925 L134.942175,45.695925 L134.390175,44.492175 L131.165925,44.492175 L130.613925,45.695925 L129.746925,45.695925 L132.278925,40.315425 L133.277175,40.315425 L135.809925,45.695925 Z" id="Fill-14" fill="#002D64"></path>
                    <polygon id="Fill-16" fill="#002D64" points="145.079625 41.11815 141.046125 41.11815 141.046125 42.5004 143.850375 42.5004 143.850375 43.3029 141.046125 43.3029 141.046125 45.69615 140.253375 45.69615 140.253375 40.31565 145.079625 40.31565"></polygon>
                    <polygon id="Fill-18" fill="#002D64" points="154.336275 41.11815 150.302775 41.11815 150.302775 42.5004 153.105525 42.5004 153.105525 43.3029 150.302775 43.3029 150.302775 45.69615 149.509275 45.69615 149.509275 40.31565 154.336275 40.31565"></polygon>
                    <polygon id="Fill-20" fill="#002D64" points="158.76525 45.696 159.5595 45.696 159.5595 40.3155 158.76525 40.3155"></polygon>
                    <polygon id="Fill-22" fill="#002D64" points="169.185825 45.69615 164.697075 45.69615 164.697075 40.31565 165.490575 40.31565 165.490575 44.89365 169.185825 44.89365"></polygon>
                    <polygon id="Fill-23" fill="#002D64" points="173.616 45.696 174.4095 45.696 174.4095 40.3155 173.616 40.3155"></polygon>
                    <path d="M183.110625,43.689675 L181.891125,41.081925 L180.657375,43.689675 L183.110625,43.689675 Z M184.915875,45.695925 L184.048125,45.695925 L183.496125,44.492175 L180.271875,44.492175 L179.719875,45.695925 L178.852875,45.695925 L181.384875,40.315425 L182.383125,40.315425 L184.915875,45.695925 Z" id="Fill-24" fill="#002D64"></path>
                    <polygon id="Fill-25" fill="#002D64" points="193.31985 41.11815 191.03235 41.11815 191.03235 45.69615 190.23885 45.69615 190.23885 41.11815 187.9506 41.11815 187.9506 40.31565 193.31985 40.31565"></polygon>
                    <polygon id="Fill-26" fill="#002D64" points="202.760775 45.69615 197.749275 45.69615 197.749275 40.31565 202.575525 40.31565 202.575525 41.11815 198.542025 41.11815 198.542025 42.5004 201.346275 42.5004 201.346275 43.3029 198.542025 43.3029 198.542025 44.89365 202.760775 44.89365"></polygon>
                    <path d="M211.527825,41.5785 C210.818325,41.172 210.096075,40.9695 209.359575,40.9695 C208.870575,40.9695 208.495575,41.034 208.236075,41.16225 C207.975075,41.292 207.844575,41.46975 207.844575,41.6985 C207.844575,41.9355 207.984075,42.1095 208.262325,42.21825 C208.459575,42.297 208.785075,42.35175 209.233575,42.38175 C209.895075,42.43125 210.331575,42.47025 210.543075,42.50025 C211.142325,42.59025 211.585575,42.75525 211.871325,42.99825 C212.158575,43.24125 212.301075,43.58475 212.301075,44.031 C212.301075,44.601 212.076825,45.042 211.627575,45.354 C211.177575,45.66675 210.531825,45.82275 209.690325,45.82275 C208.468575,45.82275 207.519825,45.5205 206.839575,44.91525 L207.276825,44.2695 C208.025325,44.78475 208.833075,45.042 209.697075,45.042 C210.255825,45.042 210.690075,44.955 210.999075,44.7825 C211.293825,44.61375 211.442325,44.3835 211.442325,44.091 C211.442325,43.749 211.248075,43.521 210.860325,43.407 C210.657075,43.34775 210.111075,43.2855 209.220075,43.221 C208.431825,43.16175 207.878325,43.04325 207.561075,42.86475 C207.190575,42.65625 207.006075,42.3075 207.006075,41.81625 C207.006075,41.3115 207.215325,40.9125 207.636825,40.62 C208.057575,40.32825 208.652325,40.182 209.418825,40.182 C210.449325,40.182 211.314825,40.44675 212.010825,40.977 L211.527825,41.5785 Z" id="Fill-27" fill="#002D64"></path>
                    <polygon id="Fill-28" fill="#5F9E44" points="64.983 32.6565 90.2205011 32.6565 90.2205011 31.41825 64.983 31.41825"></polygon>
                    <polygon id="Fill-29" fill="#5F9E44" points="188.2965 32.6565 213.534001 32.6565 213.534001 31.41825 188.2965 31.41825"></polygon>
                    <path d="M84.980325,10.143675 C82.249575,8.792925 79.468575,8.116425 76.636575,8.116425 C74.754075,8.116425 73.312575,8.330925 72.312825,8.759175 C71.312325,9.188175 70.811325,9.781425 70.811325,10.538175 C70.811325,11.329425 71.345325,11.906175 72.414075,12.268425 C73.177575,12.532425 74.424075,12.713175 76.152825,12.812175 C78.697575,12.977175 80.376075,13.108425 81.190575,13.207425 C83.496075,13.504425 85.200075,14.056425 86.302575,14.863425 C87.405075,15.670425 87.267075,16.815675 87.267075,18.298425 C87.267075,20.192925 86.401575,21.659175 84.672075,22.697175 C82.942575,23.735175 80.457825,24.253425 77.218575,24.253425 C72.521325,24.253425 68.867325,23.249175 66.255075,21.238425 L67.933575,19.088925 C70.816575,20.802675 73.920075,21.659175 77.244075,21.659175 C79.398075,21.659175 81.068325,21.371175 82.255575,20.794425 C83.391075,20.234175 83.959575,19.468425 83.959575,18.495675 C83.959575,17.359425 83.213325,16.601925 81.720825,16.222425 C80.940825,16.024425 79.527825,15.818925 76.103325,15.604425 C73.066575,15.407175 70.938825,15.011925 69.717825,14.418675 C68.293575,13.726425 67.580325,12.565425 67.580325,10.934175 C67.580325,9.253425 68.390325,7.927425 70.010325,6.955425 C71.629575,5.983425 73.914825,5.497425 76.865325,5.497425 C80.834325,5.497425 84.156825,6.378675 86.838075,8.141925 L84.980325,10.143675 Z" id="Fill-30" fill="#002D64"></path>
                    <path d="M106.4004,14.421375 C108.7584,14.421375 109.9374,13.498125 109.9374,11.649375 C109.9374,9.669375 108.6909,8.678625 106.19715,8.678625 L95.38215,8.678625 L95.38215,14.421375 L106.4004,14.421375 Z M106.93515,6.004875 C108.8184,6.004875 110.3109,6.512625 111.41415,7.527375 C112.5159,8.542875 113.0679,9.900375 113.0679,11.599125 C113.0679,13.381875 112.4949,14.742375 111.3504,15.683625 C110.2044,16.624125 107.8479,17.094375 105.6594,17.094375 L94.69215,17.094375 L94.69215,23.926125 L91.6374,23.926125 L92.3274,6.004875 L106.93515,6.004875 Z" id="Fill-31" fill="#002D64"></path>
                    <polygon id="Fill-32" fill="#002D64" points="135.158175 23.914275 115.889175 23.914275 116.579175 6.002775 135.137175 6.002775 135.137175 8.675025 119.629425 8.675025 119.629425 13.276275 130.408425 13.276275 129.719175 15.948525 118.939425 15.948525 118.939425 21.242025 135.158175 21.242025"></polygon>
                    <path d="M154.3788,14.42835 C156.70905,14.42835 157.8753,13.50435 157.8753,11.6556 C157.8753,9.67335 156.61755,8.68185 154.10205,8.68185 L143.48655,8.68185 L143.48655,14.42835 L154.3788,14.42835 Z M160.4298,23.9391 L156.9183,23.9391 L151.99005,17.1036 L142.79655,17.1036 L142.79655,23.9391 L139.7778,23.9391 L140.4678,6.00735 L154.8318,6.00735 C156.7428,6.00735 158.24355,6.51585 159.33405,7.5306 C160.4238,8.5461 160.9698,9.92085 160.9698,11.65485 C160.9698,13.1736 160.52505,14.3961 159.6363,15.3201 C158.8143,16.17885 156.99255,16.7241 155.55105,16.9551 L160.4298,23.9391 Z" id="Fill-33" fill="#002D64"></path>
                    <polygon id="Fill-34" fill="#002D64" points="213.174675 5.9685 202.144425 16.8525 202.144425 23.9595 199.010925 23.9595 199.010925 16.8525 189.359175 5.9685 193.267425 5.9685 201.284175 14.36925 209.267175 5.9685"></polygon>
                    <path d="M180.24975,14.42835 C182.58,14.42835 183.74625,13.50435 183.74625,11.6556 C183.74625,9.67335 182.48925,8.68185 179.973,8.68185 L169.35825,8.68185 L169.35825,14.42835 L180.24975,14.42835 Z M186.3015,23.9391 L182.79,23.9391 L177.861,17.1036 L168.66825,17.1036 L168.66825,23.9391 L165.6495,23.9391 L166.3395,6.00735 L180.70275,6.00735 C182.6145,6.00735 184.1145,6.51585 185.20575,7.5306 C186.2955,8.5461 186.84075,9.92085 186.84075,11.65485 C186.84075,13.1736 186.396,14.3961 185.50725,15.3201 C184.68525,16.17885 182.8635,16.7241 181.422,16.9551 L186.3015,23.9391 Z" id="Fill-35" fill="#002D64"></path>
                    <path d="M101.120325,30.2172 L99.884325,30.6972 C99.141825,29.8722 98.201325,29.45895 97.062825,29.45895 C96.081075,29.45895 95.298075,29.7132 94.713825,30.2217 C94.128825,30.73095 93.837075,31.38795 93.837075,32.19495 C93.837075,33.0267 94.128825,33.6942 94.713825,34.19895 C95.298075,34.70295 96.089325,34.95495 97.085325,34.95495 C98.238825,34.95495 99.180075,34.53345 99.906825,33.6912 L101.064075,34.38645 C100.044075,35.6757 98.706825,36.31995 97.051575,36.31995 C95.672325,36.31995 94.557825,35.93445 93.707325,35.16345 C92.856825,34.39245 92.432325,33.4047 92.432325,32.20095 C92.432325,30.9462 92.915325,29.92245 93.882075,29.13045 C94.720575,28.44045 95.751075,28.0947 96.972825,28.0947 C98.688825,28.0947 100.071075,28.80195 101.120325,30.2172" id="Fill-36" fill="#002D64"></path>
                    <path d="M110.089575,32.207175 C110.089575,31.405425 109.797075,30.744675 109.211325,30.224925 C108.626325,29.705925 107.871825,29.446425 106.948575,29.446425 C106.017825,29.446425 105.258075,29.708175 104.667825,30.231675 C104.078325,30.755175 103.784325,31.413675 103.784325,32.207175 C103.784325,33.034425 104.073075,33.703425 104.652075,34.214175 C105.229575,34.724925 105.995325,34.979925 106.948575,34.979925 C107.894325,34.979925 108.653325,34.724925 109.229325,34.214175 C109.803075,33.703425 110.089575,33.034425 110.089575,32.207175 M111.494325,32.213175 C111.494325,33.485175 111.011325,34.521675 110.045325,35.321175 C109.221075,36.003675 108.190575,36.344925 106.953825,36.344925 C105.717825,36.344925 104.682825,36.003675 103.851825,35.321175 C102.885075,34.529925 102.401325,33.493425 102.401325,32.213175 C102.401325,30.950175 102.888825,29.922675 103.863075,29.130675 C104.717325,28.431675 105.747825,28.082175 106.953825,28.082175 C108.153075,28.082175 109.179825,28.431675 110.033325,29.130675 C111.007575,29.930925 111.494325,30.958425 111.494325,32.213175" id="Fill-37" fill="#002D64"></path>
                    <polygon id="Fill-38" fill="#002D64" points="123.139875 36.11715 121.791375 36.11715 121.756875 29.72415 118.284375 35.0184 114.822375 29.6739 114.788625 29.72415 114.788625 36.11715 113.440125 36.11715 113.440125 28.34715 115.464375 28.34715 118.283625 32.74215 121.111125 28.34715 123.139875 28.34715"></polygon>
                    <polygon id="Fill-39" fill="#002D64" points="135.19995 36.11715 133.85145 36.11715 133.81695 29.72415 130.34445 35.0184 126.88245 29.6739 126.8487 29.72415 126.8487 36.11715 125.5002 36.11715 125.5002 28.34715 127.5252 28.34715 130.3437 32.74215 133.1712 28.34715 135.19995 28.34715"></polygon>
                    <polygon id="Fill-40" fill="#002D64" points="145.00155 36.11715 137.56155 36.11715 137.56155 28.34715 144.74355 28.34715 144.74355 29.7114 138.9093 29.7114 138.9093 31.39215 142.96755 31.39215 142.96755 32.7564 138.9093 32.7564 138.9093 34.7529 145.00155 34.7529"></polygon>
                    <path d="M152.127675,31.897725 C152.943675,31.897725 153.352425,31.543725 153.352425,30.836475 C153.352425,30.086475 152.918175,29.711475 152.048925,29.711475 L148.091925,29.711475 L148.091925,31.897725 L152.127675,31.897725 Z M154.880925,36.117225 L153.335175,36.117225 L151.526175,33.261975 L148.091925,33.261975 L148.091925,36.117225 L146.743425,36.117225 L146.743425,28.347225 L152.330175,28.347225 C153.064425,28.347225 153.648675,28.569975 154.083675,29.016975 C154.518675,29.463225 154.734675,30.061725 154.734675,30.810975 C154.734675,32.099475 154.161675,32.887725 153.015675,33.173475 L154.880925,36.117225 Z" id="Fill-41" fill="#002D64"></path>
                    <path d="M165.143925,30.2172 L163.907175,30.6972 C163.165425,29.8722 162.224925,29.45895 161.087175,29.45895 C160.104675,29.45895 159.320925,29.7132 158.736675,30.2217 C158.152425,30.73095 157.860675,31.38795 157.860675,32.19495 C157.860675,33.0267 158.152425,33.6942 158.736675,34.19895 C159.320925,34.70295 160.111425,34.95495 161.108175,34.95495 C162.262425,34.95495 163.202175,34.53345 163.929675,33.6912 L165.087675,34.38645 C164.068425,35.6757 162.731175,36.31995 161.075175,36.31995 C159.695925,36.31995 158.581425,35.93445 157.730925,35.16345 C156.880425,34.39245 156.455175,33.4047 156.455175,32.20095 C156.455175,30.9462 156.938175,29.92245 157.905675,29.13045 C158.744175,28.44045 159.774675,28.0947 160.995675,28.0947 C162.711675,28.0947 164.094675,28.80195 165.143925,30.2172" id="Fill-42" fill="#002D64"></path>
                    <polygon id="Fill-43" fill="#002D64" points="167.03175 36.117 168.381 36.117 168.381 28.347 167.03175 28.347"></polygon>
                    <path d="M175.868025,33.08535 L174.225525,29.64285 L172.571025,33.08535 L175.868025,33.08535 Z M178.822275,36.11685 L177.336525,36.11685 L176.542275,34.4496 L171.896775,34.4496 L171.101775,36.11685 L169.617525,36.11685 L173.381775,28.34685 L175.056525,28.34685 L178.822275,36.11685 Z" id="Fill-44" fill="#002D64"></path>
                    <polygon id="Fill-45" fill="#002D64" points="186.7467 36.11715 180.05895 36.11715 180.05895 28.34715 181.4082 28.34715 181.4082 34.7529 186.7467 34.7529"></polygon>
                    <path d="M215.5752,40.690425 C215.3757,40.589175 215.17245,40.538175 214.96545,40.538175 C214.82895,40.538175 214.7232,40.554675 214.65045,40.586925 C214.5777,40.619175 214.54095,40.663425 214.54095,40.720425 C214.54095,40.780425 214.57995,40.823175 214.6572,40.850175 C214.7127,40.870425 214.8042,40.883925 214.93095,40.891425 C215.11695,40.904175 215.2392,40.913175 215.29845,40.921425 C215.4672,40.943175 215.5917,40.985175 215.67195,41.045925 C215.7522,41.106675 215.79345,41.192175 215.79345,41.303925 C215.79345,41.446425 215.73045,41.556675 215.6037,41.634675 C215.47695,41.712675 215.2947,41.751675 215.05845,41.751675 C214.7157,41.751675 214.44945,41.675925 214.2582,41.525175 L214.38045,41.363175 C214.5912,41.492175 214.8177,41.556675 215.0607,41.556675 C215.2182,41.556675 215.34045,41.534925 215.4267,41.491425 C215.50995,41.449425 215.55195,41.392425 215.55195,41.318925 C215.55195,41.233425 215.4972,41.176425 215.3877,41.147925 C215.3307,41.132925 215.17695,41.117175 214.9272,41.101425 C214.7052,41.086425 214.54995,41.056425 214.4607,41.012175 C214.35645,40.960425 214.3047,40.872675 214.3047,40.750425 C214.3047,40.623675 214.3647,40.523925 214.48245,40.451175 C214.60095,40.377675 214.7682,40.341675 214.9827,40.341675 C215.27295,40.341675 215.5152,40.407675 215.7117,40.540425 L215.5752,40.690425 Z" id="Fill-46" fill="#002D64"></path>
                    <polygon id="Fill-47" fill="#002D64" points="218.360625 41.72025 218.137875 41.72025 218.137875 40.62075 218.132625 40.62075 217.433625 41.4975 216.740625 40.62075 216.735375 40.62075 216.735375 41.72025 216.513375 41.72025 216.513375 40.3755 216.790125 40.3755 217.435125 41.1885 218.083125 40.3755 218.360625 40.3755"></polygon>
                    <path d="M34.714575,38.16465 L34.714575,28.9014 C34.714575,28.9014 52.726575,31.0689 61.641825,47.2419 C61.641825,47.2419 55.403325,42.05565 34.714575,38.16465" id="Fill-48" fill="#5F9E44"></path>
                    <path d="M9.6387,30.294075 L9.6387,35.815575 C9.6387,35.815575 4.2852,36.803325 0.5082,39.521325 C0.5082,39.521325 4.14495,32.318325 9.6387,30.294075" id="Fill-49" fill="#5F9E44"></path>
                    <path d="M8.651025,30.72105 L9.638775,30.2883 L10.328775,15.74355 L15.949275,12.0993 L15.260025,41.59005 L20.879025,41.59005 L21.569025,5.9223 L27.158775,2.37105 L26.468775,36.98805 C26.468775,36.98805 31.207275,37.41255 33.139275,37.82205 L33.829275,11.57355 L38.306775,8.73405 L37.616775,29.50755 C37.616775,29.50755 41.435775,30.6198 43.237275,31.26105 L43.237275,28.43655 L48.857775,24.76155 L48.857775,34.1208 C48.857775,34.1208 53.731275,37.3413 54.416025,38.24355 L54.416025,26.7363 L49.104525,23.30805 L43.237275,27.10605 L43.927275,10.52355 L38.770275,7.15755 L33.829275,10.30755 L33.829275,4.0083 L28.240275,0.42555 L20.519775,5.3358 L20.519775,12.34605 L17.091525,10.15305 L9.341025,15.12555 L8.651025,30.72105 Z" id="Fill-50" fill="#002D64"></path>
                    <polygon id="Fill-51" fill="#002D64" points="17.0607 11.450325 20.48895 13.642575 19.79895 40.446075 16.3707 40.446075"></polygon>
                    <path d="M32.748075,4.56225 L28.239825,1.78275 L27.549825,36.03 C27.549825,36.03 31.194075,36.3075 32.058075,36.6165 L32.748075,4.56225 Z" id="Fill-52" fill="#002D64"></path>
                    <path d="M39.4182,8.8854 L42.84645,11.0784 L42.15645,29.8539 C42.15645,29.8539 39.84045,29.2359 38.7282,29.05065 L39.4182,8.8854 Z" id="Fill-53" fill="#002D64"></path>
                    <path d="M49.911225,24.4248 L53.391225,27.0033 L53.391225,37.04955 C53.391225,37.04955 51.801975,35.28255 49.911225,34.08255 L49.911225,24.4248 Z" id="Fill-54" fill="#002D64"></path>
                    <path d="M34.714575,38.16465 L34.714575,30.93765 C34.714575,30.93765 55.281075,33.62115 61.641825,47.2419 C61.641825,47.2419 55.403325,42.05565 34.714575,38.16465" id="Fill-55" fill="#002D64"></path>
                    <path d="M9.6387,32.110125 L9.6387,35.815125 C9.6387,35.815125 4.2852,36.803625 0.5082,39.520875 C0.5082,39.520875 4.38945,34.271625 9.6387,32.110125" id="Fill-56" fill="#002D64"></path>
                </g>
            </g>
        </g>
    </g>
</svg>