<svg width="234" height="60" xmlns="http://www.w3.org/2000/svg"><defs><linearGradient x1="0%" y1="0%" y2="100%" id="a"><stop stop-color="#003E73" offset="0%"/><stop stop-color="#002C51" offset="100%"/></linearGradient></defs><g fill="none" fill-rule="evenodd"><path d="M75.707 43.784l-.579-.102a5.588 5.588 0 0 1-1.725.272 4.93 4.93 0 0 1-1.55-.238 3.7 3.7 0 0 1-1.26-.704 3.257 3.257 0 0 1-.845-1.147c-.205-.454-.307-.972-.307-1.555 0-.598.104-1.131.312-1.6.208-.47.492-.865.852-1.186a3.72 3.72 0 0 1 1.27-.738 4.705 4.705 0 0 1 1.562-.256c.34 0 .652.027.936.08.284.053.494.102.63.147l.908-.17v2.327h-.522l-.306-1.453a3.46 3.46 0 0 0-.732-.33 3.285 3.285 0 0 0-.971-.124 2.6 2.6 0 0 0-1.118.238 2.547 2.547 0 0 0-.863.659c-.238.28-.424.613-.556.999a3.859 3.859 0 0 0-.199 1.26c0 .492.065.942.193 1.35.129.41.314.761.557 1.056.242.295.542.524.902.687.36.163.77.244 1.232.244a3.2 3.2 0 0 0 .72-.085 2.58 2.58 0 0 0 .676-.256l.488-1.566h.545l-.25 2.19zm10.145-3.576c0 .515-.097.999-.29 1.453a3.78 3.78 0 0 1-1.975 2.004c-.45.2-.936.3-1.458.3a3.935 3.935 0 0 1-1.459-.266 3.483 3.483 0 0 1-1.17-.75 3.484 3.484 0 0 1-.777-1.157 3.786 3.786 0 0 1-.284-1.482 3.763 3.763 0 0 1 2.265-3.468c.45-.2.937-.3 1.459-.3s1.008.089 1.458.266a3.44 3.44 0 0 1 1.947 1.913c.19.447.284.942.284 1.487zm-1.203.125c0-.522-.068-.99-.205-1.402a3.4 3.4 0 0 0-.55-1.056c-.231-.29-.5-.514-.806-.67a2.12 2.12 0 0 0-.97-.232c-.341 0-.661.07-.96.21a2.23 2.23 0 0 0-.783.619 3.128 3.128 0 0 0-.534 1.004 4.321 4.321 0 0 0-.198 1.368c0 .522.068.991.204 1.408.136.416.32.77.55 1.061.231.291.498.515.8.67a2.184 2.184 0 0 0 1.924.017c.3-.144.563-.352.79-.625.227-.272.407-.607.539-1.004.132-.397.199-.853.199-1.368zm9.327 3.45l.034-.397.636-.079c.06-.008.108-.045.142-.113.034-.069.06-.188.08-.358a6.46 6.46 0 0 0 .028-.681c0-.284-.008-.645-.023-1.084l-.136-3.667h-.08l-2.202 6.153h-.545l-2.145-5.903h-.136l-.148 3.371c-.023.515-.04.924-.051 1.226-.011.303-.011.53 0 .681.011.152.032.25.062.296.03.045.072.071.125.079l.647.08.034.397h-2.463l.034-.398.636-.079a.243.243 0 0 0 .153-.08c.042-.045.081-.143.12-.295.037-.15.071-.376.101-.675.03-.299.061-.71.091-1.232l.148-2.792c.015-.325-.013-.566-.085-.72a.533.533 0 0 0-.37-.302l-.68-.125-.034-.397h2.588l1.918 5.313h.057l1.862-5.313h2.508l-.034.397-.772.069c-.098.015-.168.054-.21.119a.379.379 0 0 0-.062.21l.136 3.587c.015.461.032.838.051 1.13.019.29.044.516.074.675.03.159.066.268.108.329.041.06.089.094.142.102l.635.08.034.397h-3.008zm10.962 0l.034-.397.636-.079c.06-.008.108-.045.142-.113.034-.069.06-.188.08-.358a6.46 6.46 0 0 0 .028-.681 32.6 32.6 0 0 0-.023-1.084l-.136-3.667h-.08l-2.202 6.153h-.545l-2.145-5.903h-.136l-.148 3.371c-.022.515-.04.924-.05 1.226-.012.303-.012.53 0 .681.01.152.031.25.062.296.03.045.071.071.124.079l.647.08.035.397h-2.464l.034-.398.636-.079a.243.243 0 0 0 .153-.08c.042-.045.082-.143.12-.295.037-.15.071-.376.102-.675.03-.299.06-.71.09-1.232l.148-2.792c.015-.325-.013-.566-.085-.72a.533.533 0 0 0-.37-.302l-.68-.125-.034-.397h2.588l1.918 5.313h.057l1.862-5.313h2.508l-.034.397-.772.069c-.098.015-.168.054-.21.119a.379.379 0 0 0-.062.21l.136 3.587c.015.461.032.838.051 1.13.02.29.044.516.074.675.03.159.066.268.108.329.041.06.089.094.142.102l.635.08.034.397h-3.008zm10.645 0h-5.562l.034-.397.465-.056a.826.826 0 0 0 .312-.074c.057-.034.085-.078.085-.13v-5.801a.117.117 0 0 0-.073-.114 1.41 1.41 0 0 0-.324-.068l-.465-.057-.034-.397h5.573v2.112h-.545l-.272-1.102a1.058 1.058 0 0 0-.136-.306c-.053-.076-.157-.132-.313-.17a3.661 3.661 0 0 0-.68-.074 34.81 34.81 0 0 0-1.244-.017h-.408v2.826h.306c.22 0 .397-.002.534-.005a1.66 1.66 0 0 0 .323-.034.357.357 0 0 0 .17-.08.41.41 0 0 0 .086-.13l.26-.76h.443l-.238 2.44h-.431l-.091-.727a.38.38 0 0 0-.04-.13c-.019-.034-.066-.063-.142-.086a1.462 1.462 0 0 0-.323-.045c-.14-.007-.335-.011-.585-.011h-.272v2.951h.318c.567 0 1.014-.006 1.339-.017.325-.011.573-.038.743-.08.17-.041.288-.1.352-.175a.988.988 0 0 0 .165-.295l.272-1.045h.613l-.215 2.055zm6.796-5.13c0-.515-.138-.902-.414-1.164-.277-.26-.69-.372-1.243-.334h-.182c-.083 0-.166.003-.25.01a3.01 3.01 0 0 1-.295.012v2.974l.806.068c.477-.037.859-.183 1.147-.437.287-.253.43-.63.43-1.129zm1.01 3.996c.099.136.182.244.25.323.068.08.129.142.182.187a.537.537 0 0 0 .153.097c.049.019.1.036.153.051l.352.08.045.397h-1.827l-.432-.783-1.362-2.384-.908.034v2.497c0 .053.027.093.08.12.053.026.159.047.317.062l.557.056.034.398h-2.963l.034-.398.465-.056c.152-.015.256-.04.313-.074.056-.034.085-.078.085-.13v-5.801a.117.117 0 0 0-.074-.114 1.41 1.41 0 0 0-.324-.068l-.465-.057-.034-.397h2.94c.9 0 1.559.161 1.975.483.416.321.624.743.624 1.265 0 .492-.15.9-.454 1.226a2.843 2.843 0 0 1-1.169.738l1.453 2.248zm9.078 1.135l-.579-.102a5.588 5.588 0 0 1-1.725.272 4.93 4.93 0 0 1-1.55-.238 3.7 3.7 0 0 1-1.26-.704 3.257 3.257 0 0 1-.845-1.147c-.205-.454-.307-.972-.307-1.555 0-.598.104-1.131.312-1.6.208-.47.492-.865.852-1.186a3.72 3.72 0 0 1 1.27-.738 4.705 4.705 0 0 1 1.562-.256c.34 0 .652.027.936.08.284.053.494.102.63.147l.908-.17v2.327h-.522l-.306-1.453a3.46 3.46 0 0 0-.732-.33 3.285 3.285 0 0 0-.971-.124 2.6 2.6 0 0 0-1.118.238 2.547 2.547 0 0 0-.863.659c-.238.28-.424.613-.556.999a3.859 3.859 0 0 0-.199 1.26c0 .492.065.942.193 1.35.129.41.314.761.557 1.056.242.295.542.524.902.687.36.163.77.244 1.232.244a3.2 3.2 0 0 0 .72-.085 2.58 2.58 0 0 0 .676-.256l.488-1.566h.545l-.25 2.19zm2.71 0l.034-.398.579-.056a.826.826 0 0 0 .312-.074c.057-.034.085-.078.085-.13v-5.801a.117.117 0 0 0-.074-.114 1.41 1.41 0 0 0-.323-.068l-.58-.057-.033-.397h3.099l-.034.397-.58.057c-.15.015-.255.04-.311.074-.057.034-.086.078-.086.13v5.801c0 .053.027.093.08.12.053.026.159.047.318.062l.579.056.034.398h-3.1zm8.748 0l.034-.398.557-.09a.67.67 0 0 0 .232-.085c.05-.035.076-.095.08-.182a1.137 1.137 0 0 0-.057-.346c-.042-.144-.1-.333-.176-.568l-.284-.885h-2.338l-.272.874a13.12 13.12 0 0 0-.182.539 1.283 1.283 0 0 0-.068.358c0 .09.023.158.068.204a.367.367 0 0 0 .204.09l.454.091.034.398h-2.372l.034-.398.318-.079a1.02 1.02 0 0 0 .312-.13.953.953 0 0 0 .267-.313 4.95 4.95 0 0 0 .312-.664c.117-.291.263-.683.437-1.175l1.317-3.689v-.408l1.021-.477 2.146 6.538a.395.395 0 0 0 .119.176c.057.05.138.081.244.097l.613.124.034.398h-3.088zm-.703-6.085h-.068l-1.022 3.054h2.032l-.942-3.054zm10.723 6.085h-5.391l.034-.398.465-.056a.826.826 0 0 0 .312-.074c.057-.034.085-.078.085-.13v-5.801a.117.117 0 0 0-.074-.114 1.41 1.41 0 0 0-.323-.068l-.465-.057-.034-.397h2.974l-.034.397-.568.057a.826.826 0 0 0-.312.074c-.057.034-.085.078-.085.13v5.994h.352c.514 0 .919-.006 1.214-.017.295-.011.524-.038.687-.08.163-.041.276-.1.34-.175a.835.835 0 0 0 .154-.295l.329-1.26h.59l-.25 2.27zm11.22-1.919c0 .629-.255 1.105-.766 1.43-.51.326-1.205.489-2.083.489H159.4l.034-.398.465-.056c.152-.015.256-.04.313-.074.056-.034.085-.078.085-.13v-5.801a.117.117 0 0 0-.074-.114 1.41 1.41 0 0 0-.324-.068l-.465-.057-.034-.397h2.974c.477 0 .874.042 1.192.125.318.083.573.197.766.34.193.144.331.31.414.5a1.594 1.594 0 0 1-.005 1.243c-.087.2-.208.38-.364.54a2.07 2.07 0 0 1-.561.402c-.22.11-.462.187-.727.233v.057c.378.03.698.1.96.21.26.11.474.244.64.403.167.159.288.334.364.527.076.193.113.392.113.596zm-1.475-3.303c0-.431-.136-.78-.409-1.044-.272-.265-.707-.397-1.305-.397h-.602v2.803l.76-.011c.288-.008.532-.053.733-.136.2-.083.361-.191.482-.324a1.22 1.22 0 0 0 .261-.431c.053-.155.08-.308.08-.46zm.318 3.394a1.52 1.52 0 0 0-.154-.698 1.37 1.37 0 0 0-.431-.5 1.942 1.942 0 0 0-.658-.294 3.39 3.39 0 0 0-.835-.097h-.556v2.815l.783.17.273-.01c.196-.008.39-.043.579-.103.189-.06.357-.148.505-.261a1.248 1.248 0 0 0 .494-1.022zm7.613-3.303c0-.515-.138-.902-.414-1.164-.276-.26-.69-.372-1.243-.334h-.182c-.083 0-.166.003-.25.01a3.01 3.01 0 0 1-.295.012v2.974l.806.068c.477-.037.86-.183 1.147-.437.287-.253.431-.63.431-1.129zm1.01 3.996c.099.136.182.244.25.323.068.08.129.142.182.187a.537.537 0 0 0 .153.097c.05.019.1.036.153.051l.352.08.045.397h-1.827l-.431-.783-1.363-2.384-.908.034v2.497c0 .053.027.093.08.12.053.026.159.047.318.062l.556.056.034.398h-2.963l.034-.398.466-.056a.826.826 0 0 0 .312-.074c.057-.034.085-.078.085-.13v-5.801a.117.117 0 0 0-.074-.114 1.41 1.41 0 0 0-.323-.068l-.466-.057-.034-.397h2.94c.9 0 1.56.161 1.975.483.417.321.625.743.625 1.265 0 .492-.152.9-.454 1.226a2.843 2.843 0 0 1-1.17.738l1.453 2.248zm10.225-2.44c0 .514-.097.998-.29 1.452a3.78 3.78 0 0 1-1.975 2.004c-.45.2-.936.3-1.459.3a3.935 3.935 0 0 1-1.458-.266 3.483 3.483 0 0 1-1.17-.75 3.484 3.484 0 0 1-.777-1.157 3.786 3.786 0 0 1-.284-1.482 3.763 3.763 0 0 1 2.265-3.468c.45-.2.936-.3 1.458-.3.523 0 1.009.089 1.46.266a3.44 3.44 0 0 1 1.946 1.913c.19.447.284.942.284 1.487zm-1.204.124c0-.522-.068-.99-.204-1.402a3.4 3.4 0 0 0-.55-1.056c-.231-.29-.5-.514-.806-.67a2.12 2.12 0 0 0-.97-.232c-.341 0-.661.07-.96.21a2.23 2.23 0 0 0-.783.619 3.128 3.128 0 0 0-.534 1.004 4.321 4.321 0 0 0-.199 1.368c0 .522.069.991.205 1.408.136.416.32.77.55 1.061.231.291.498.515.8.67a2.184 2.184 0 0 0 1.924.017c.3-.144.563-.352.79-.625a3.07 3.07 0 0 0 .539-1.004c.132-.397.198-.853.198-1.368zm7.534 3.45l.035-.397.385-.079c.061-.015.086-.053.074-.113a.546.546 0 0 0-.096-.205l-1.828-2.667-.68.647v2.18c0 .052.026.092.079.118.053.027.159.048.317.063l.466.056.034.398H185.1l.034-.398.465-.056c.152-.015.256-.04.313-.074.056-.034.085-.078.085-.13v-5.801a.117.117 0 0 0-.074-.114 1.41 1.41 0 0 0-.324-.068l-.465-.057-.034-.397h2.872l-.034.397-.466.057a.831.831 0 0 0-.312.074c-.056.034-.085.078-.085.13v2.986l2.089-2.032c.212-.204.37-.376.477-.516.105-.14.166-.256.181-.347.015-.09-.006-.159-.062-.204a.536.536 0 0 0-.267-.09l-.465-.058-.034-.397h2.871l-.034.397-.386.057c-.174.03-.342.097-.505.199-.162.102-.38.286-.652.55l-1.805 1.771 2.304 3.167c.076.099.14.18.193.244a.785.785 0 0 0 .153.148c.05.034.1.059.153.074.053.015.118.03.193.045l.33.045.034.398h-2.657zm9.986 0h-5.562l.034-.397.466-.056a.826.826 0 0 0 .312-.074c.057-.034.085-.078.085-.13v-5.801a.117.117 0 0 0-.074-.114 1.41 1.41 0 0 0-.323-.068l-.466-.057-.034-.397h5.574v2.112h-.545l-.273-1.102a1.058 1.058 0 0 0-.136-.306c-.053-.076-.157-.132-.312-.17a3.661 3.661 0 0 0-.681-.074 34.81 34.81 0 0 0-1.243-.017h-.409v2.826h.307c.22 0 .397-.002.533-.005.137-.004.244-.015.324-.034a.357.357 0 0 0 .17-.08.41.41 0 0 0 .085-.13l.261-.76h.443l-.238 2.44h-.432l-.09-.727a.38.38 0 0 0-.04-.13c-.02-.034-.066-.063-.142-.086a1.462 1.462 0 0 0-.324-.045 12.29 12.29 0 0 0-.584-.011h-.273v2.951h.318c.568 0 1.014-.006 1.34-.017.325-.011.573-.038.743-.08.17-.041.288-.1.352-.175a.988.988 0 0 0 .165-.295l.272-1.045h.613l-.216 2.055zm6.797-5.13c0-.515-.138-.902-.415-1.164-.276-.26-.69-.372-1.243-.334h-.181c-.084 0-.167.003-.25.01-.09.009-.19.012-.295.012v2.974l.806.068c.477-.037.859-.183 1.146-.437.288-.253.432-.63.432-1.129zm1.01 3.996c.098.136.182.244.25.323.068.08.128.142.181.187a.537.537 0 0 0 .154.097c.049.019.1.036.153.051l.352.08.045.397h-1.828l-.43-.783-1.363-2.384-.908.034v2.497c0 .053.026.093.08.12.052.026.158.047.317.062l.556.056.034.398h-2.962l.034-.398.465-.056c.152-.015.256-.04.312-.074.057-.034.085-.078.085-.13v-5.801a.117.117 0 0 0-.073-.114 1.41 1.41 0 0 0-.324-.068l-.465-.057-.034-.397h2.94c.9 0 1.559.161 1.975.483.416.321.624.743.624 1.265 0 .492-.151.9-.454 1.226a2.843 2.843 0 0 1-1.17.738l1.454 2.248zm6.195 1.135l.034-.398.556-.09a.67.67 0 0 0 .232-.085c.05-.035.076-.095.08-.182a1.137 1.137 0 0 0-.057-.346c-.041-.144-.1-.333-.176-.568l-.284-.885h-2.338l-.272.874c-.076.212-.137.391-.182.539a1.283 1.283 0 0 0-.068.358c0 .09.023.158.068.204a.367.367 0 0 0 .204.09l.454.091.034.398h-2.372l.034-.398.318-.079a1.02 1.02 0 0 0 .312-.13.953.953 0 0 0 .267-.313 4.95 4.95 0 0 0 .312-.664c.117-.291.263-.683.437-1.175l1.317-3.689v-.408l1.021-.477 2.146 6.538a.395.395 0 0 0 .119.176c.057.05.138.081.244.097l.613.124.034.398h-3.087zm-.704-6.085h-.068l-1.022 3.054h2.032l-.942-3.054zm12.596 3.338l-.488.057a.85.85 0 0 0-.312.073c-.057.034-.085.078-.085.13v1.704l.681.068.023.306c-.227.076-.471.15-.732.221a10.84 10.84 0 0 1-1.646.312 7.35 7.35 0 0 1-.8.046 4.85 4.85 0 0 1-1.556-.244 3.67 3.67 0 0 1-1.26-.71 3.303 3.303 0 0 1-.84-1.14c-.204-.45-.306-.967-.306-1.55 0-.598.111-1.131.335-1.6a3.54 3.54 0 0 1 .896-1.186c.375-.322.81-.568 1.306-.738a4.805 4.805 0 0 1 1.572-.256c.34 0 .65.027.93.08.28.053.485.102.614.147l.908-.17v2.327h-.534l-.306-1.453a3.208 3.208 0 0 0-.72-.33c-.262-.082-.59-.124-.983-.124-.4 0-.774.08-1.118.238a2.693 2.693 0 0 0-.89.659c-.25.28-.447.613-.591.999a3.582 3.582 0 0 0-.216 1.26c0 .492.063.942.187 1.35a3.1 3.1 0 0 0 .545 1.056c.239.295.53.524.874.687.345.163.74.244 1.187.244.257 0 .508-.026.754-.08.246-.052.456-.12.63-.204v-1.94c0-.061-.026-.103-.08-.126a1.262 1.262 0 0 0-.317-.056l-.579-.057-.034-.398h2.986l-.035.398zm7.569 2.747h-5.563l.034-.398.466-.056a.826.826 0 0 0 .312-.074c.057-.034.085-.078.085-.13v-5.801a.117.117 0 0 0-.074-.114 1.41 1.41 0 0 0-.323-.068l-.466-.057-.034-.397h5.574v2.112h-.545l-.272-1.102a1.058 1.058 0 0 0-.137-.306c-.053-.076-.157-.132-.312-.17a3.661 3.661 0 0 0-.68-.074 34.81 34.81 0 0 0-1.244-.017h-.408v2.826h.306c.22 0 .397-.002.534-.005a1.66 1.66 0 0 0 .323-.034.357.357 0 0 0 .17-.08.41.41 0 0 0 .085-.13l.262-.76h.442l-.238 2.44h-.431l-.091-.727a.38.38 0 0 0-.04-.13c-.019-.034-.066-.063-.142-.086a1.462 1.462 0 0 0-.323-.045c-.14-.007-.335-.011-.585-.011h-.272v2.951h.317c.568 0 1.014-.006 1.34-.017.325-.011.573-.038.743-.08.17-.041.288-.1.352-.175a.988.988 0 0 0 .165-.295l.272-1.045h.613l-.215 2.055zM69.843 30.34l.982-.11c.437-.054.75-.122.941-.204.19-.082.286-.177.286-.286V14.686a.22.22 0 0 0-.04-.137c-.028-.036-.092-.072-.191-.109a2.32 2.32 0 0 0-.437-.095 9.712 9.712 0 0 0-.75-.069l-.763-.109-.082-.436H83.97l.191 5.591h-.709l-.245-.9c-.219-.782-.473-1.436-.764-1.964a3.9 3.9 0 0 0-1.105-1.281c-.445-.328-.986-.555-1.622-.682-.637-.127-1.41-.191-2.318-.191l-1.827.027v7.473l1.009-.028c1.072-.036 1.877-.2 2.413-.49.536-.291.923-.81 1.16-1.555l.3-.873h.572l-.682 6.546-.545-.028-.11-.845c-.036-.4-.108-.732-.217-.996a1.404 1.404 0 0 0-.532-.64c-.246-.164-.573-.287-.982-.369-.41-.082-.932-.131-1.568-.15l-.818-.027v7.773l2.263.082c.945 0 1.755-.096 2.427-.287.673-.191 1.25-.468 1.732-.832a4.963 4.963 0 0 0 1.214-1.322 9.031 9.031 0 0 0 .845-1.76l.273-.818h.709l-.71 5.59H69.763l.081-.435zm17.072 0l1.037-.136c.454-.037.763-.1.927-.192.163-.09.245-.181.245-.272V14.713a.283.283 0 0 0-.04-.15c-.028-.045-.087-.082-.178-.11a4.858 4.858 0 0 0-.423-.095 6.22 6.22 0 0 0-.75-.082l-.79-.109-.082-.436h8.4l-.082.436-1.337.137c-.8.054-1.2.21-1.2.463v15.355l1.555.109c.854 0 1.577-.086 2.168-.26a4.5 4.5 0 0 0 1.568-.804c.454-.364.855-.836 1.2-1.418s.7-1.282 1.064-2.1l.327-.9h.709l-.791 6.027H86.833l.082-.436zm15.927 0l1.036-.136c.454-.037.764-.1.928-.192.163-.09.245-.181.245-.272V14.713a.283.283 0 0 0-.041-.15c-.027-.045-.086-.082-.177-.11a4.858 4.858 0 0 0-.423-.095 6.22 6.22 0 0 0-.75-.082l-.791-.109-.082-.436h8.4l-.082.436-1.336.137c-.8.054-1.2.21-1.2.463v15.355l1.554.109c.855 0 1.578-.086 2.169-.26a4.5 4.5 0 0 0 1.568-.804c.454-.364.854-.836 1.2-1.418.345-.582.7-1.282 1.063-2.1l.327-.9h.71l-.791 6.027h-13.61l.083-.436zm15.927 0l.982-.11c.436-.054.75-.122.94-.204.191-.082.287-.177.287-.286V14.686c0-.055-.014-.1-.041-.137-.027-.036-.091-.072-.191-.109a2.336 2.336 0 0 0-.436-.095 9.712 9.712 0 0 0-.75-.069l-.764-.109-.082-.436h14.182l.19 5.591h-.708l-.246-.9c-.218-.782-.473-1.436-.764-1.964a3.894 3.894 0 0 0-1.104-1.281c-.446-.328-.987-.555-1.623-.682-.637-.127-1.41-.191-2.318-.191l-1.827.027v7.473l1.009-.028c1.073-.036 1.877-.2 2.413-.49.536-.291.923-.81 1.16-1.555l.3-.873h.572l-.682 6.546-.545-.028-.109-.845c-.037-.4-.109-.732-.218-.996a1.404 1.404 0 0 0-.532-.64c-.246-.164-.573-.287-.982-.369-.409-.082-.932-.131-1.568-.15l-.818-.027v7.773l2.263.082c.945 0 1.755-.096 2.428-.287.672-.191 1.249-.468 1.731-.832a4.976 4.976 0 0 0 1.214-1.322 9.007 9.007 0 0 0 .845-1.76l.273-.818h.709l-.709 5.59h-14.563l.082-.435zm24.251-8.4c1.225-.036 2.184-.373 2.879-1.009.694-.637 1.041-1.573 1.041-2.81 0-1.217-.37-2.172-1.11-2.862-.74-.692-1.795-1.019-3.166-.982h-.576c-.164 0-.338.009-.52.027v7.417c.164.037.406.083.726.137.32.055.562.082.726.082zm-7.316 8.4l1.146-.11c.363-.036.654-.1.873-.19.218-.091.327-.191.327-.3V14.686c0-.055-.014-.1-.041-.137-.027-.036-.091-.072-.191-.109a2.32 2.32 0 0 0-.436-.095 9.542 9.542 0 0 0-.75-.068l-.9-.11-.082-.436 8.127-.027c2.326 0 4.064.364 5.209 1.09 1.145.728 1.718 1.8 1.718 3.219 0 1.054-.369 1.963-1.104 2.727-.737.763-1.742 1.3-3.014 1.61l3.545 5.59c.273.436.514.795.723 1.077.209.282.413.509.613.682.2.173.41.3.628.382.218.081.472.14.763.177l.437.082.109.436h-5.728l-.49-.954-4.083-7.228a24.84 24.84 0 0 0-.782-.136c-.338-.054-.589-.118-.753-.19v7.553c0 .2.454.337 1.363.41l.982.109.082.436h-8.373l.082-.436zm18.354 0l.791-.082c.364-.037.659-.095.886-.177a1.15 1.15 0 0 0 .546-.396c.136-.182.232-.422.286-.722.054-.3.091-.686.11-1.16l.354-12.408c-.328-.618-.883-.982-1.664-1.091l-.981-.11-.083-.463h6.546l4.363 12.273h.082l4.446-12.273h6.572l-.082.464-1.472.109c-.383.036-.66.109-.832.218-.173.11-.26.227-.26.354l.3 13.528c0 .363.018.659.055.886.036.227.104.405.204.532a.74.74 0 0 0 .41.259c.173.045.395.086.668.123l.981.136.082.436h-8.372l.082-.436 1.336-.136c.382-.037.641-.182.777-.437.137-.255.195-.727.178-1.418l-.327-13.227h-.11l-5.727 15.49h-.9l-5.4-14.863a.624.624 0 0 0-.15-.19.48.48 0 0 1-.122-.137l-.3 12.545a5.53 5.53 0 0 0 .04 1.077c.046.282.137.51.273.682.137.173.337.296.6.368a5.9 5.9 0 0 0 1.023.164l.791.082.082.436h-6.164l.082-.436zm30.49-13.39h-.11l-2.235 6.435h4.417l-2.072-6.436zm-3.327 9.234a56.345 56.345 0 0 0-.628 1.97c-.145.497-.19.89-.136 1.18.055.29.214.494.477.611.264.118.668.204 1.214.258l.627.087.082.486h-6.082l.082-.49.518-.083c.4-.054.732-.14.996-.258.263-.118.518-.359.763-.722.246-.363.509-.89.791-1.58.282-.688.641-1.632 1.078-2.83l3.109-8.632-.219-.926c.219-.054.45-.15.696-.286a5.84 5.84 0 0 0 .722-.476c.237-.182.45-.377.641-.585.191-.21.332-.422.423-.64h.49l4.855 14.158c.2.562.377 1.017.532 1.362.154.345.318.617.491.816.173.2.354.34.545.422.191.082.423.132.696.15l.818.11.082.49h-8.454l.081-.49.791-.083c.328-.035.577-.1.75-.19a.623.623 0 0 0 .327-.435c.046-.198.037-.456-.027-.773a9.372 9.372 0 0 0-.34-1.181l-1.2-3.666h-4.828l-.763 2.226zm17.644-9.617h-.082l.028 11.318c0 .455.031.823.095 1.105.064.282.173.509.327.681.154.173.364.3.628.382.263.082.586.141.968.178l.818.109.082.436h-6.164l.082-.436.764-.11c.654-.054 1.104-.25 1.35-.586.245-.336.368-.968.368-1.895l.082-11.536a4.89 4.89 0 0 0-.996-1.227 2.746 2.746 0 0 0-1.377-.655l-.573-.164-.082-.436h6.082l9.49 11.918h.082l-.027-9c0-.454-.031-.827-.095-1.118-.064-.29-.173-.522-.327-.695-.155-.173-.36-.3-.614-.382a4.646 4.646 0 0 0-.982-.178l-.79-.109-.082-.436h6.136l-.082.436-.764.11c-.636.054-1.082.25-1.336.586-.255.337-.381.978-.381 1.923l-.083 14.154h-.954l-11.59-14.373zm19.527 0h-.082l.027 11.318c0 .455.032.823.096 1.105.063.282.172.509.327.681.154.173.364.3.627.382.263.082.587.141.969.178l.818.109.081.436h-6.163l.082-.436.763-.11c.655-.054 1.105-.25 1.35-.586.246-.336.369-.968.369-1.895l.082-11.536a4.89 4.89 0 0 0-.996-1.227 2.746 2.746 0 0 0-1.377-.655l-.573-.164-.082-.436h6.082l9.49 11.918h.082l-.027-9c0-.454-.032-.827-.095-1.118-.064-.29-.173-.522-.327-.695-.155-.173-.36-.3-.614-.382a4.646 4.646 0 0 0-.982-.178l-.791-.109-.082-.436h6.137l-.082.436-.764.11c-.637.054-1.082.25-1.336.586-.255.337-.382.978-.382 1.923l-.082 14.154h-.954l-11.59-14.373z" fill="#003E73"/><rect fill="url(#a)" width="60" height="60" rx="2"/><path d="M15.672 35.328c.702 0 1.506-.56 2.412-1.682.905-1.122 1.98-2.858 3.223-5.21.08-.189.189-.446.324-.77s.264-.655.385-.993c.122-.338.223-.655.304-.953.081-.297.122-.5.122-.608a4.658 4.658 0 0 0-.446-1.277 4.473 4.473 0 0 0-.81-1.115 4.486 4.486 0 0 0-1.055-.79 2.388 2.388 0 0 0-1.135-.305c-.298 0-.547.068-.75.203a6.29 6.29 0 0 0-.669.527c-.432.433-.858 1.054-1.277 1.865-.42.81-.805 1.69-1.155 2.635a21.3 21.3 0 0 0-.852 2.92c-.217 1-.324 1.905-.324 2.715 0 .92.148 1.622.446 2.108.297.487.716.73 1.257.73m7.338 3c-.244 0-.562-.088-.953-.263a7.604 7.604 0 0 1-1.156-.649 6.615 6.615 0 0 1-.973-.79c-.27-.27-.405-.5-.405-.69 0-.405.169-1.14.507-2.21a98.013 98.013 0 0 1 1.398-4.033h-.162c-.784 1.352-1.5 2.554-2.148 3.608-.649 1.054-1.264 1.946-1.845 2.676-.581.73-1.162 1.29-1.743 1.682a3.31 3.31 0 0 1-1.885.588c-1.163 0-2.149-.405-2.96-1.216-.81-.81-1.216-1.919-1.216-3.324 0-.973.148-1.96.446-2.96.297-1 .696-1.98 1.196-2.94a19.72 19.72 0 0 1 1.763-2.776 27.32 27.32 0 0 1 2.108-2.473c1-1 1.973-1.764 2.92-2.29.945-.528 1.85-.791 2.716-.791.459 0 .837.121 1.135.365.297.243.533.567.71.973.175.405.29.871.344 1.398.054.527.08 1.061.08 1.602h.204l3.04-10.257c.054-.27.06-.507.02-.71-.04-.202-.141-.317-.304-.344l-3.243-.406.122-.527 8.716-1.135-5.351 17.149-2.392 7.784 1.824.284 2.757-3.568.365.324a17.703 17.703 0 0 1-1.399 2.412c-.5.717-1 1.338-1.5 1.865-.5.527-.987.933-1.46 1.217-.473.283-.898.425-1.276.425m17.23-.851c.35 0 .695-.094 1.033-.284.338-.19.655-.434.953-.732.513-.515 1.013-1.22 1.5-2.114.486-.894.912-1.85 1.277-2.866.364-1.016.655-2.046.871-3.089.216-1.043.325-1.971.325-2.785 0-1.137-.19-1.977-.568-2.52-.379-.542-.865-.813-1.46-.813-.46 0-.932.23-1.418.691-.487.461-.987 1.098-1.5 1.91-.514.814-1.034 1.79-1.561 2.927a67.824 67.824 0 0 0-1.602 3.78 13.18 13.18 0 0 0-.486 1.546c-.081.325-.156.637-.223.934a3.335 3.335 0 0 0-.101.65 3.4 3.4 0 0 0 .425.977c.203.325.44.623.71.894.27.271.56.488.871.65.31.163.629.244.953.244zm-13.136 9.77l1.095-.162c.54-.054.919-.128 1.135-.222a.668.668 0 0 0 .405-.466l6.69-24.001-1.744-.162-2.635 3.81-.406-.365c.406-.891.852-1.716 1.338-2.473.487-.756.98-1.412 1.48-1.966.5-.553.993-.986 1.48-1.297.486-.31.946-.466 1.378-.466.216 0 .513.088.892.263.378.177.75.392 1.115.649s.682.534.953.831c.27.298.405.581.405.851 0 .487-.122 1.115-.365 1.885s-.486 1.507-.73 2.21h.244c1.08-2.297 2.135-3.98 3.162-5.047 1.027-1.067 2.189-1.602 3.486-1.602 1.217 0 2.196.548 2.94 1.642.743 1.095 1.114 2.508 1.114 4.237 0 1.54-.297 3.08-.892 4.621a15.842 15.842 0 0 1-2.35 4.156c-.974 1.23-2.089 2.23-3.345 3-1.257.77-2.561 1.155-3.913 1.155-.648 0-1.25-.182-1.804-.547a3.723 3.723 0 0 1-1.277-1.399h-.162L34.036 46.44c-.054.188.047.33.304.424.257.093.764.168 1.52.222l1.703.17.04.681h-10.62l.12-.689z" fill="#FEFEFE"/></g></svg>