<svg width="219" height="48" xmlns="http://www.w3.org/2000/svg"><g fill="none" fill-rule="evenodd"><path d="M71.206 43.201c0 .875-.279 1.581-.837 2.12-.557.54-1.297.808-2.218.808-.841 0-1.545-.24-2.11-.72-.638-.546-.958-1.256-.958-2.133 0-.862.324-1.57.972-2.126.569-.485 1.29-.728 2.162-.728 1.053 0 1.917.433 2.592 1.3l-.74.417c-.499-.6-1.138-.9-1.918-.9-.608 0-1.117.168-1.527.506-.477.391-.714.902-.714 1.53 0 .605.204 1.096.615 1.472.41.377.951.565 1.626.565 1.058 0 1.746-.463 2.063-1.39h-2.228v-.802h3.22v.081zm9.434 2.773h-4.489v-5.38h.794v4.577h3.696zm9.211-2.698c0-.629-.238-1.14-.714-1.53-.41-.338-.92-.506-1.527-.506-.666 0-1.209.192-1.627.576-.418.384-.628.87-.628 1.46 0 .61.206 1.1.615 1.475.41.374.956.561 1.64.561.68 0 1.221-.188 1.63-.565.407-.376.611-.867.611-1.471m.826 0c0 .882-.322 1.595-.965 2.14-.564.476-1.265.714-2.102.714-.847 0-1.552-.24-2.116-.721-.644-.545-.965-1.256-.965-2.133 0-.862.326-1.57.978-2.126.573-.485 1.274-.728 2.103-.728.833 0 1.531.243 2.096.728.647.555.971 1.264.971 2.126m8.768 1.894c.66 0 .992-.244.992-.734 0-.526-.29-.788-.866-.788h-3.154v1.523h3.028zm.06-2.325c.22 0 .404-.071.55-.213a.693.693 0 0 0 .224-.52.7.7 0 0 0-.2-.522c-.132-.13-.313-.195-.541-.195h-3.121v1.45h3.088zm.925.356c.546.208.82.661.82 1.36 0 .942-.603 1.412-1.812 1.412h-3.815v-5.38h3.868c.485 0 .866.133 1.144.401.277.268.416.624.416 1.07 0 .49-.207.87-.62 1.137zm9.17.766l-1.218-2.608-1.235 2.608h2.454zm1.805 2.006h-.867l-.552-1.203h-3.224l-.552 1.203h-.868l2.533-5.38h.998l2.532 5.38zm8.933.001h-4.49v-5.38h.794v4.577h3.696zm13.667-2.007l-1.22-2.608-1.234 2.608h2.454zm1.805 2.006h-.868l-.552-1.203h-3.224l-.552 1.203h-.867l2.532-5.38h.998l2.533 5.38zm9.27-4.577h-4.034v1.382h2.804v.802h-2.804v2.394h-.793v-5.38h4.827zm9.256 0h-4.033v1.382h2.803v.802h-2.803v2.394h-.794v-5.38h4.827zm4.429 4.578h.795v-5.381h-.795zm10.421 0h-4.489v-5.38h.794v4.577h3.695zm4.43 0h.793v-5.381h-.793zm9.494-2.007l-1.219-2.608-1.234 2.608h2.454zm1.806 2.006h-.868l-.552-1.203h-3.224l-.552 1.203h-.867l2.532-5.38h.998l2.533 5.38zm8.404-4.577h-2.288v4.578h-.793v-4.578h-2.288v-.803h5.369zm9.44 4.578h-5.01v-5.38h4.826v.802h-4.034v1.382h2.804v.802h-2.804v1.591h4.219zm8.768-4.118c-.71-.407-1.432-.609-2.168-.609-.49 0-.864.065-1.124.193-.26.13-.391.307-.391.536 0 .237.14.411.417.52.198.078.523.133.972.163.661.05 1.098.089 1.31.119.598.09 1.042.255 1.327.498.288.243.43.586.43 1.032 0 .57-.224 1.012-.673 1.324-.45.312-1.096.468-1.938.468-1.221 0-2.17-.302-2.85-.907l.437-.646c.748.515 1.556.773 2.42.773.559 0 .993-.087 1.302-.26.295-.169.443-.399.443-.691 0-.342-.194-.57-.582-.684-.203-.06-.749-.122-1.64-.187-.788-.059-1.342-.177-1.659-.356-.37-.208-.555-.557-.555-1.048 0-.505.21-.904.63-1.197.422-.291 1.016-.437 1.783-.437 1.03 0 1.896.264 2.592.794l-.483.602z" fill="#002D64"/><path fill="#5F9E44" d="M64.983 32.934h25.238v-1.238H64.983zm123.314 0h25.237v-1.238h-25.237z"/><path d="M84.98 10.421c-2.73-1.35-5.511-2.027-8.343-2.027-1.883 0-3.324.214-4.324.643-1 .429-1.502 1.022-1.502 1.779 0 .79.534 1.368 1.603 1.73.764.264 2.01.445 3.739.544 2.545.165 4.223.296 5.038.395 2.305.297 4.01.849 5.112 1.656 1.102.807.964 1.952.964 3.435 0 1.894-.865 3.36-2.595 4.399-1.73 1.038-4.214 1.556-7.453 1.556-4.698 0-8.352-1.004-10.964-3.015l1.679-2.15c2.883 1.714 5.986 2.57 9.31 2.57 2.154 0 3.824-.287 5.012-.864 1.135-.56 1.704-1.326 1.704-2.299 0-1.136-.747-1.894-2.24-2.273-.78-.198-2.192-.404-5.617-.618-3.036-.197-5.164-.593-6.385-1.186-1.424-.692-2.138-1.853-2.138-3.484 0-1.681.81-3.007 2.43-3.98 1.62-.971 3.905-1.457 6.855-1.457 3.97 0 7.292.881 9.973 2.644l-1.858 2.002zm21.42 4.278c2.358 0 3.537-.923 3.537-2.772 0-1.98-1.246-2.97-3.74-2.97H95.382v5.742H106.4zm.535-8.417c1.883 0 3.376.508 4.48 1.523 1.1 1.015 1.653 2.373 1.653 4.072 0 1.782-.573 3.143-1.718 4.084-1.146.94-3.502 1.41-5.69 1.41H94.691v6.833h-3.055l.69-17.922h14.608zm28.223 17.91H115.89l.69-17.912h18.558v2.673H119.63v4.6h10.78l-.69 2.673h-10.78v5.294h16.22zm19.221-9.486c2.33 0 3.496-.924 3.496-2.773 0-1.982-1.257-2.974-3.773-2.974h-10.615v5.747h10.892zm6.05 9.51h-3.51l-4.929-6.835h-9.193v6.836h-3.02l.69-17.932h14.365c1.91 0 3.412.508 4.502 1.523 1.09 1.016 1.636 2.39 1.636 4.124 0 1.52-.445 2.742-1.334 3.666-.822.858-2.643 1.404-4.085 1.635l4.879 6.984zm52.746-17.97l-11.03 10.884v7.107h-3.134V17.13l-9.652-10.884h3.908l8.017 8.4 7.983-8.4zm-32.925 8.46c2.33 0 3.496-.924 3.496-2.773 0-1.982-1.257-2.974-3.773-2.974h-10.615v5.747h10.892zm6.052 9.51h-3.512l-4.929-6.835h-9.193v6.836h-3.019l.69-17.932h14.364c1.911 0 3.411.508 4.503 1.523 1.09 1.016 1.635 2.39 1.635 4.124 0 1.52-.445 2.742-1.334 3.666-.822.858-2.644 1.404-4.085 1.635l4.88 6.984zm-85.182 6.279l-1.236.48c-.742-.825-1.683-1.239-2.821-1.239-.982 0-1.765.255-2.35.763-.584.51-.876 1.166-.876 1.973 0 .832.292 1.5.877 2.004.584.504 1.375.756 2.371.756 1.154 0 2.095-.421 2.822-1.263l1.157.695c-1.02 1.29-2.357 1.933-4.012 1.933-1.38 0-2.494-.385-3.345-1.156-.85-.771-1.275-1.759-1.275-2.963 0-1.254.483-2.278 1.45-3.07.839-.69 1.87-1.036 3.09-1.036 1.717 0 3.1.707 4.148 2.123m8.97 1.99c0-.802-.293-1.463-.879-1.983-.585-.519-1.34-.778-2.262-.778-.931 0-1.69.262-2.281.785-.59.524-.884 1.182-.884 1.976 0 .827.29 1.496.868 2.007.578.51 1.343.765 2.297.765.945 0 1.704-.255 2.28-.765.574-.511.86-1.18.86-2.007m1.405.006c0 1.272-.483 2.308-1.449 3.108-.824.682-1.854 1.023-3.091 1.023-1.236 0-2.271-.34-3.102-1.023-.967-.792-1.45-1.828-1.45-3.108 0-1.263.487-2.29 1.461-3.083.854-.699 1.885-1.048 3.09-1.048 1.2 0 2.227.35 3.08 1.048.975.8 1.461 1.828 1.461 3.083m11.646 3.904h-1.349l-.034-6.393-3.473 5.294-3.462-5.345-.033.05v6.394h-1.349v-7.77h2.024l2.82 4.395 2.827-4.395h2.029zm12.06 0h-1.349l-.034-6.393-3.473 5.294-3.462-5.345-.033.05v6.394H125.5v-7.77h2.025l2.819 4.395 2.827-4.395h2.029zm9.802 0h-7.44v-7.77h7.182v1.364h-5.835v1.68h4.059v1.365h-4.059v1.996h6.093zm7.126-4.22c.816 0 1.224-.354 1.224-1.061 0-.75-.434-1.125-1.303-1.125h-3.957v2.186h4.036zm2.753 4.22h-1.546l-1.809-2.856h-3.434v2.856h-1.349v-7.77h5.587c.734 0 1.319.222 1.754.67.435.446.65 1.044.65 1.793 0 1.289-.572 2.077-1.718 2.363l1.865 2.944zm10.263-5.9l-1.237.48c-.742-.825-1.682-1.239-2.82-1.239-.982 0-1.766.255-2.35.763-.585.51-.876 1.166-.876 1.973 0 .832.291 1.5.876 2.004.584.504 1.374.756 2.371.756 1.154 0 2.094-.421 2.822-1.263l1.158.695c-1.02 1.29-2.357 1.933-4.013 1.933-1.38 0-2.494-.385-3.344-1.156-.85-.771-1.276-1.759-1.276-2.963 0-1.254.483-2.278 1.45-3.07.84-.69 1.87-1.036 3.09-1.036 1.717 0 3.1.707 4.149 2.123m1.888 5.9h1.349v-7.77h-1.35zm8.836-3.032l-1.642-3.443-1.655 3.443h3.297zm2.954 3.031h-1.485l-.795-1.667h-4.645l-.795 1.667h-1.484l3.764-7.77h1.675l3.765 7.77zm7.925.001h-6.688v-7.77h1.35v6.405h5.338zm28.828 4.573a1.334 1.334 0 0 0-.61-.152.807.807 0 0 0-.315.048c-.072.033-.109.077-.109.134 0 .06.039.103.116.13.056.02.147.033.274.04.186.014.308.023.367.03.17.023.294.065.374.125.08.061.121.147.121.258a.368.368 0 0 1-.19.331c-.126.078-.308.117-.545.117-.342 0-.609-.076-.8-.226l.122-.162c.211.129.438.193.68.193a.83.83 0 0 0 .367-.065c.083-.042.125-.1.125-.173 0-.085-.055-.142-.164-.17a3.469 3.469 0 0 0-.46-.047c-.223-.015-.378-.045-.467-.09-.105-.051-.156-.139-.156-.261a.34.34 0 0 1 .177-.3c.119-.073.286-.109.5-.109.291 0 .533.066.73.199l-.137.15zm2.785 1.03h-.222v-1.1h-.005l-.7.877-.692-.877h-.006v1.1h-.222v-1.345h.277l.645.813.648-.813h.278z" fill="#002D64"/><path d="M34.715 38.442V29.18s18.012 2.167 26.927 18.34c0 0-6.239-5.186-26.927-9.077M9.639 30.572v5.521s-5.354.988-9.13 3.706c0 0 3.636-7.203 9.13-9.227" fill="#5F9E44"/><path d="M8.651 30.999l.988-.433.69-14.545 5.62-3.644-.689 29.49h5.619l.69-35.667 5.59-3.551-.69 34.617s4.738.424 6.67.834l.69-26.249 4.478-2.84-.69 20.774s3.819 1.112 5.62 1.754v-2.825l5.62-3.675v9.36s4.874 3.22 5.559 4.122V27.014l-5.311-3.428-5.868 3.798.69-16.583-5.157-3.366-4.94 3.15v-6.3L28.24.704l-7.72 4.91v7.01l-3.428-2.192-7.751 4.972L8.651 31z" fill="#002D64"/><path fill="#002D64" d="M17.06 11.728l3.429 2.192-.69 26.804H16.37zM32.748 4.84L28.24 2.06l-.69 34.248s3.644.277 4.508.586l.69-32.054zm6.67 4.323l3.428 2.193-.69 18.775s-2.316-.618-3.428-.803l.69-20.165zm10.493 15.539l3.48 2.579v10.046s-1.589-1.767-3.48-2.967v-9.658zm-15.196 13.74v-7.227S55.28 33.9 61.642 47.52c0 0-6.239-5.186-26.927-9.077M9.639 32.388v3.705s-5.354.988-9.13 3.705c0 0 3.88-5.249 9.13-7.41"/></g></svg>